<?xml version="1.0" encoding="UTF-8"?><svg version="1.1" id="pattern-tile" xmlns="http://www.w3.org/2000/svg" x="0px" y="0px" viewBox="0 0 257.9 205.7" style="enable-background:new 0 0 257.9 205.7;" xml:space="preserve" preserveAspectRatio="xMinYMid" width="257.9" height="205.7"><g opacity="0.85" ><path fill="#fff" d="M166.2,113.3c-2.7-3.2-4-6.4-4.1-10.3c0.1-4.1,1.5-7.7,4.1-10.7l26.7-27l0.2-0.2c7-7,6.9-19-0.3-26.3 c-7.2-7.1-19.3-7.3-26.3-0.3l-27.1,26.9c-3.2,2.7-6.4,4-10.3,4.1c-4.1-0.1-7.7-1.5-10.7-4.1l-27-26.7l-0.2-0.2 c-7-7-19-6.9-26.3,0.3c-7.1,7.2-7.3,19.3-0.3,26.3l26.9,27.1c2.7,3.2,4,6.4,4.1,10.3c-0.1,4.1-1.5,7.7-4.1,10.7l-26.7,27l-0.2,0.2 c-7,7-6.9,19,0.3,26.3c3.7,3.6,8.6,5.4,13.4,5.4c4.7,0,9.4-1.7,12.8-5.2l27.1-26.9c3.1-2.6,6.6-4,10.8-4.1 c3.9,0.1,7.1,1.4,10.2,4.1l27,26.7l0.2,0.2c7,7,19,6.9,26.3-0.3c7.1-7.2,7.3-19.3,0.3-26.3L166.2,113.3z M192.2,166 c-6.9,6.8-18.3,6.9-24.9,0.3l-27.2-27c-3.4-2.9-6.7-4.2-10.9-4.4h0c-4.3,0.2-8.1,1.6-11.4,4.4l-27,26.7l-0.2,0.2 c-6.6,6.6-18,6.5-24.9-0.3c-6.8-6.9-6.9-18.3-0.3-24.9l27-27.2c2.7-3.2,4.2-7.1,4.4-11.4c-0.1-4.2-1.5-7.5-4.4-10.9l-26.7-27 l-0.2-0.2c-6.6-6.6-6.5-18,0.3-24.9c3.5-3.4,8.1-5.2,12.7-5.2c4.5,0,8.9,1.6,12.1,4.9l27.2,27c3.2,2.7,7.1,4.2,11.4,4.4 c4.2-0.1,7.5-1.5,10.9-4.4l27-26.7l0.2-0.2c6.6-6.6,18-6.5,24.9,0.3c6.8,6.9,6.9,18.3,0.3,24.9l-27,27.2c-2.7,3.2-4.2,7.1-4.4,11.4 c0.1,4.2,1.5,7.5,4.4,10.9l26.7,27l0.2,0.2C199,147.8,198.9,159.2,192.2,166z"/><path fill="#fff" d="M200.3,102.9c0-31.4,25.8-57,57.4-57v-1h-0.4v0c-19.7,0.1-37.1,10-47.6,25c7.9-13.6,6.4-32.1-4.6-43.2 c-13.2-13.1-36.7-12.8-50.3,0.8l-21.3,21.9c-1.6,1.4-2.9,1.5-4.3,1.5c-1.6,0-3.3-0.1-4.8-1.5L103,27.4C89.5,13.9,66,13.5,52.7,26.6 c-10.9,11-12.5,29.1-4.9,42.7C37.3,54.6,20.1,44.9,0.6,44.9H0.1v1h0.4c31.4,0,57,25.6,57,57s-25.8,57-57.5,57v1 c19.9,0,37.4-9.9,48-24.9c-7.8,13.6-6.3,31.9,4.7,43c13.2,13.1,36.7,12.8,50.3-0.8l21.3-21.9c1.5-1.4,3.2-1.5,4.8-1.5h0 c1.4,0,2.7,0.1,4.3,1.5l21.3,21.9c6.9,6.9,16.5,10.4,25.9,10.4c9,0,17.9-3.2,24.4-9.6c11-11.1,12.5-29.4,4.7-43 c10.6,15,28.2,24.9,48,24.9v-1C226.1,159.9,200.3,134.3,200.3,102.9z M58.5,102.9c0-10.8-3-20.9-8.1-29.5c0.9,1.3,2,2.5,3.1,3.6 l21.9,21.3c1.4,1.6,1.5,2.9,1.5,4.3c0,1.6-0.1,3.3-1.5,4.8l-21.9,21.3c-1.2,1.2-2.3,2.5-3.3,3.8C55.5,123.8,58.5,113.7,58.5,102.9z M204.4,178.3c-12.9,12.8-35.7,12.4-48.9-0.8l-21.4-21.9c-1.8-1.6-3.2-1.8-4.7-1.8c-0.1,0-0.2,0-0.3,0c-1.7,0-3.7,0.2-5.5,1.8 l-21.3,21.9c-13.2,13.2-36,13.6-48.9,0.8c-12.8-12.8-12.4-35.7,0.8-48.9l21.9-21.4c1.6-1.8,1.8-3.8,1.8-5.5c0-1.6-0.1-3.1-1.8-5 L54.3,76.2c-13.2-13.2-13.6-36-0.8-48.9c12.9-12.8,35.7-12.4,48.9,0.8l21.4,21.9c1.8,1.6,3.8,1.8,5.5,1.8c1.6,0,3.1-0.1,5-1.8 l21.3-21.9c13.2-13.2,36-13.6,48.9-0.8c12.8,12.9,12.4,35.7-0.8,48.9l-21.9,21.4c-1.6,1.8-1.8,3.8-1.8,5.5c0,1.6,0.1,3.1,1.8,5 l21.9,21.3C216.8,142.6,217.2,165.5,204.4,178.3z M204.3,128.7l-21.9-21.3c-1.4-1.6-1.5-2.9-1.5-4.3c0-1.6,0.1-3.3,1.5-4.8 l21.9-21.3c1.2-1.2,2.3-2.5,3.3-3.9c-5.3,8.7-8.3,18.9-8.3,29.8c0,10.8,3,21,8.3,29.6C206.6,131.2,205.5,129.9,204.3,128.7z"/></g><g opacity="0.34"><path fill="#fff" d="M197.7,84.9l-36.5-0.2c-4-0.3-7-1.6-9.7-4.1c-2.7-2.9-4.2-6.2-4.5-10l-0.2-36.2v-0.3c0-9.5-8.2-17.5-17.9-17.6 c-9.7,0.1-17.9,8.1-17.9,17.6l-0.2,36.5c-0.3,4-1.6,7-4.1,9.7c-2.9,2.7-6.2,4.2-10,4.5l-36.2,0.2h-0.3c-9.5,0-17.5,8.2-17.6,17.9 c0.1,9.7,8.1,17.9,17.6,17.9l36.5,0.2c4,0.3,7,1.6,9.7,4.1c2.7,2.9,4.2,6.2,4.5,10l0.2,36.2v0.3c0,9.5,8.2,17.5,17.9,17.6 c9.7-0.1,17.9-8.1,17.9-17.6l0.2-36.5c0.3-3.9,1.8-7.1,4.5-10c2.7-2.5,5.7-3.8,9.7-4.1l36.2-0.2h0.3c9.5,0,17.5-8.2,17.6-17.9 C215.1,93.1,207.1,84.9,197.7,84.9z M197.7,119.8l-36.5,0.2c-4.2,0.4-7.4,1.7-10.3,4.4l0,0c-2.8,3-4.4,6.6-4.7,10.7l-0.2,36.2v0.3 c0,8.9-7.8,16.5-16.9,16.6c-9.2-0.1-16.9-7.7-16.9-16.6l-0.2-36.5c-0.3-4-1.9-7.6-4.8-10.7c-2.9-2.7-6.1-4.1-10.3-4.4l-36.2-0.2 h-0.3c-8.9,0-16.5-7.8-16.6-16.9c0.1-9.2,7.7-16.9,16.6-16.9l36.5-0.2c4-0.3,7.6-1.9,10.7-4.8c2.7-2.9,4.1-6.1,4.4-10.3l0.2-36.2 v-0.3c0-8.9,7.8-16.5,16.9-16.6c9.2,0.1,16.9,7.7,16.9,16.6l0.2,36.5c0.3,4,1.9,7.6,4.8,10.7c2.9,2.7,6.1,4.1,10.3,4.4l36.2,0.2 h0.3c8.9,0,16.5,7.8,16.6,16.9C214.2,112,206.6,119.8,197.7,119.8z"/><path fill="#fff" d="M232.7,102.9c0-13.8,11.2-25.1,25.1-25.1v-1c-13.9,0-25.2,10.9-26,24.5c-0.9-17.2-16.6-31.9-34.5-31.9 l-29.1,0.4c-2-0.1-3-0.9-3.9-1.9c-1.1-1.1-2.1-2.3-2.2-4.2l0.4-29.2c0-18.3-15.6-34.4-33.4-34.5c-17.8,0.1-33.4,16.2-33.4,34.5 l0.4,29.1c-0.1,2-0.9,3-1.9,3.9c-1.1,1.1-2.3,2.1-4.2,2.2l-29.2-0.4c-17.8,0-33.5,14.8-34.4,31.9C25.4,87.9,14.4,77.2,0.8,76.8h0.2 V38.7h-1v38.2h0.1v1c13.8,0,25.1,11.2,25.1,25.1c0,13.8-11.3,25-25.1,25.1l0,0.9h0V167h1v-38.1c13.4-0.5,24.3-11.2,25.1-24.5 c1,17.1,16.7,31.8,34.5,31.8l29.1-0.4c2,0.1,3,0.9,3.9,1.9c1.1,1.1,2.1,2.3,2.2,4.2l-0.4,29.2c0,18.3,15.6,34.4,33.4,34.5 c17.8-0.1,33.4-16.2,33.4-34.5L162,142c0.1-1.9,1.1-3.2,2.2-4.3l0,0c0.9-1,1.9-1.8,3.9-1.9l29.2,0.4c17.8,0,33.5-14.7,34.4-31.9 c0.8,13.6,12.2,24.5,26.1,24.6l0-1C243.9,127.9,232.7,116.7,232.7,102.9z M197.3,135.3l-29.2-0.4c-2.4,0.1-3.5,1.1-4.6,2.2 c-1.2,1.1-2.4,2.6-2.5,5l0.4,29.2c0,17.8-15.2,33.4-32.4,33.5c-17.3-0.1-32.4-15.7-32.4-33.5l0.4-29.2c-0.1-2.3-1.3-3.8-2.5-4.9 c-1.1-1.1-2.2-2.1-4.6-2.2l-29.2,0.4c-17.8,0-33.4-15.2-33.5-32.4c0.1-17.3,15.7-32.4,33.5-32.4l29.2,0.4c2.3-0.1,3.8-1.3,4.9-2.5 c1.1-1.1,2.1-2.2,2.2-4.6l-0.4-29.2c0-17.8,15.2-33.4,32.4-33.5c17.3,0.1,32.4,15.7,32.4,33.5L161,63.7c0.1,2.3,1.3,3.8,2.5,4.9 c1.1,1.1,2.2,2.1,4.6,2.2l29.2-0.4c17.8,0,33.4,15.2,33.5,32.4C230.7,120.1,215.1,135.3,197.3,135.3z"/></g></svg>