<svg version="1.1" xmlns="http://www.w3.org/2000/svg" xmlns:xlink="http://www.w3.org/1999/xlink" x="0px" y="0px"
	 viewBox="0 0 149.7 149.6" style="enable-background:new 0 0 149.7 149.6;" xml:space="preserve">
<style type="text/css">
	.st0{fill:#A09B9A;}
	.st1{fill:#7AC143;}
	.st2{fill:#F9A541;}
	.st3{fill:#F44321;}
	.st4{fill:#5091CD;}
</style>
<g id="TM">
	<path id="T" class="st0" d="M141.4,42v0.5H140v3.5h-0.5v-3.5h-1.3V42H141.4z"/>
	<path id="V" class="st0" d="M141.8,42h0.8l1.1,3.3l1.1-3.3h0.8v3.9h-0.5v-2.3c0-0.1,0-0.2,0-0.4c0-0.2,0-0.4,0-0.6l-1.1,3.3h-0.5
		l-1.1-3.3v0.1c0,0.1,0,0.2,0,0.4c0,0.2,0,0.3,0,0.4v2.3h-0.5V42z"/>
</g>
<g id="brandmark-flat">
	<path id="j-green" class="st1" d="M27,75.5l-2.9-2.9c-8.9-8.9-11.7-21.7-8.3-33c-8.9-2-15.6-10-15.6-19.5c0-11.1,9-20,20-20
		c10,0,18.2,7.3,19.8,16.8c10.8-2.5,22.6,0.4,31.1,8.8l1.2,1.2L57.4,41.6l-1.1-1.2c-4.8-4.8-12.6-4.8-17.4,0
		c-4.8,4.8-4.8,12.6,0,17.4l2.9,2.9l14.8,14.8l15.6,15.6l-14.8,14.8L41.8,90.2L27,75.5L27,75.5z"/>
	<path id="j-orange_1_" class="st2" d="M43.5,58.9l15.6-15.6l14.8-14.8l2.9-2.9c8.9-8.9,21.6-11.7,32.8-8.4C111,7.5,119.4,0,129.5,0
		c11.1,0,20,9,20,20c0,10.2-7.6,18.6-17.4,19.9c3.2,11.2,0.4,23.8-8.4,32.7l-1.2,1.2l-14.8-14.8l1.1-1.1c4.8-4.8,4.8-12.6,0-17.4
		c-4.8-4.8-12.5-4.8-17.4,0l-2.9,2.9L73.9,58.1L58.3,73.7L43.5,58.9L43.5,58.9z"/>
	<path id="j-red" class="st3" d="M110.1,133.5c-11.4,3.5-24.2,0.7-33.2-8.3l-1.1-1.1l14.8-14.8l1.1,1.1c4.8,4.8,12.6,4.8,17.4,0
		c4.8-4.8,4.8-12.5,0-17.4l-2.9-2.9L91.3,75.5L75.7,59.8l14.8-14.8l15.6,15.6l14.8,14.8l2.9,2.9c8.5,8.5,11.4,20.5,8.8,31.3
		c9.7,1.4,17.2,9.7,17.2,19.8c0,11.1-9,20-20,20C120,149.6,111.9,142.7,110.1,133.5L110.1,133.5z"/>
	<path id="j-blue" class="st4" d="M104.3,92l-15.6,15.6l-14.8,14.8l-2.9,2.9c-8.5,8.5-20.6,11.4-31.5,8.7c-2,8.9-10,15.5-19.5,15.5
		c-11.1,0-20-9-20-20c0-9.5,6.6-17.4,15.4-19.5c-2.8-11,0.1-23.1,8.7-31.7l1.1-1.1L40,92l-1.1,1.1c-4.8,4.8-4.8,12.6,0,17.4
		c4.8,4.8,12.6,4.8,17.4,0l2.9-2.9l14.8-14.8l15.6-15.6L104.3,92L104.3,92z"/>
</g>
</svg>