<?xml version="1.0" encoding="UTF-8" standalone="no"?>
<svg
   xmlns:dc="http://purl.org/dc/elements/1.1/"
   xmlns:cc="http://creativecommons.org/ns#"
   xmlns:rdf="http://www.w3.org/1999/02/22-rdf-syntax-ns#"
   xmlns:svg="http://www.w3.org/2000/svg"
   xmlns="http://www.w3.org/2000/svg"
   xmlns:sodipodi="http://sodipodi.sourceforge.net/DTD/sodipodi-0.dtd"
   xmlns:inkscape="http://www.inkscape.org/namespaces/inkscape"
   version="1.1"
   x="0px"
   y="0px"
   viewBox="0 0 376.3 74.8"
   enable-background="new 0 0 376.3 74.8"
   xml:space="preserve"
   id="svg43"
   sodipodi:docname="logo-joomla-blue.svg"
   preserveAspectRatio="xMinYMin meet"
   width="376.29999"
   height="74.800003"
   inkscape:version="0.92.4 (5da689c313, 2019-01-14)"><metadata
     id="metadata49"><rdf:RDF><cc:Work
         rdf:about=""><dc:format>image/svg+xml</dc:format><dc:type
           rdf:resource="http://purl.org/dc/dcmitype/StillImage" /></cc:Work></rdf:RDF></metadata><defs
     id="defs47" /><sodipodi:namedview
     pagecolor="#ffffff"
     bordercolor="#666666"
     borderopacity="1"
     objecttolerance="10"
     gridtolerance="10"
     guidetolerance="10"
     inkscape:pageopacity="0"
     inkscape:pageshadow="2"
     inkscape:window-width="1920"
     inkscape:window-height="1057"
     id="namedview45"
     showgrid="false"
     inkscape:zoom="0.75471701"
     inkscape:cx="-69.562498"
     inkscape:cy="37.400002"
     inkscape:window-x="-8"
     inkscape:window-y="-8"
     inkscape:window-maximized="1"
     inkscape:current-layer="svg43" /><g
     id="logo"><path
       d="m 116.4,14.8 v 31.3 c 0,2.8 0.2,5.4 -2.3,7.3 -2.3,1.9 -6.2,2.5 -10.4,2.5 -6.4,0 -13.2,-1.5 -13.2,-1.5 l -1.5,4 c 0,0 9.5,2 16.4,2.1 5.8,0.1 10.9,-1.2 13.7,-4.4 2.3,-2.6 3,-5.6 2.9,-10.7 V 14.8 h -5.6"
       id="path19"
       inkscape:connector-curvature="0"
       style="fill:#28466a" /><path
       d="m 163.1,32.1 c -4.2,-2.3 -9.3,-3.5 -15.1,-3.5 -5.7,0 -10.8,1.2 -15.1,3.5 v 0 c -5.4,2.9 -8.1,7.2 -8.1,12.6 0,5.4 2.7,9.7 8.1,12.6 4.3,2.3 9.3,3.5 15.1,3.5 5.7,0 10.8,-1.2 15,-3.5 5.4,-2.9 8.1,-7.2 8.1,-12.6 0.1,-5.5 -2.7,-9.7 -8,-12.6 m -3.3,22 c -3.3,1.9 -7.2,2.8 -11.8,2.8 -4.7,0 -8.7,-0.9 -11.9,-2.7 v 0 c -3.9,-2.2 -5.8,-5.3 -5.8,-9.5 0,-4.1 2,-7.3 5.8,-9.5 3.2,-1.8 7.2,-2.7 11.9,-2.7 4.6,0 8.6,0.9 11.9,2.7 3.8,2.2 5.8,5.4 5.8,9.5 0,4 -2,7.2 -5.9,9.4 z"
       id="path21"
       inkscape:connector-curvature="0"
       style="fill:#28466a" /><path
       d="m 212.3,32.1 c -4.2,-2.3 -9.3,-3.5 -15.1,-3.5 -5.7,0 -10.8,1.2 -15.1,3.5 v 0 c -5.4,2.9 -8.1,7.2 -8.1,12.6 0,5.4 2.7,9.7 8.1,12.6 4.3,2.3 9.3,3.5 15.1,3.5 5.7,0 10.8,-1.2 15,-3.5 5.4,-2.9 8.1,-7.2 8.1,-12.6 0.1,-5.5 -2.6,-9.7 -8,-12.6 m -3.2,22 c -3.3,1.9 -7.2,2.8 -11.8,2.8 -4.7,0 -8.7,-0.9 -11.9,-2.7 -3.9,-2.2 -5.8,-5.3 -5.8,-9.5 0,-4.1 2,-7.3 5.8,-9.5 3.2,-1.8 7.2,-2.7 11.9,-2.7 4.6,0 8.6,0.9 11.9,2.7 3.8,2.2 5.8,5.4 5.8,9.5 -0.1,4 -2.1,7.2 -5.9,9.4 z"
       id="path23"
       inkscape:connector-curvature="0"
       style="fill:#28466a" /><path
       d="m 280.2,31.3 c -3,-1.8 -6.9,-2.7 -11.5,-2.7 -5.9,0 -10.6,1.8 -14.2,5.4 -3.4,-3.6 -8.2,-5.4 -14.1,-5.4 -4.8,0 -8.7,1 -11.7,2.9 0,-0.7 0,-2.5 0,-2.5 h -5.3 v 31.1 h 5.3 V 38.9 c 0.4,-1.5 1.4,-2.9 3,-4.1 2.2,-1.5 5,-2.3 8.5,-2.3 3.1,0 5.7,0.6 7.9,1.9 2.6,1.5 3.8,3.5 3.8,6.3 v 19.6 h 5.2 V 40.6 c 0,-2.8 1.2,-4.8 3.8,-6.3 2.2,-1.2 4.9,-1.9 8,-1.9 3.1,0 5.8,0.6 8,1.9 2.6,1.5 3.8,3.5 3.8,6.3 V 60.2 H 286 V 41.3 c -0.1,-4.4 -2,-7.8 -5.8,-10"
       id="path25"
       inkscape:connector-curvature="0"
       style="fill:#28466a" /><polyline
       points="290.2,14.8 290.2,60.2 295.5,60.2 295.5,14.8 290.2,14.8 "
       id="polyline27"
       style="fill:#28466a" /><polyline
       points="354.5,14.8 354.5,49.9 359.8,49.9 359.8,14.8 354.5,14.8 "
       id="polyline29"
       style="fill:#28466a" /><path
       d="m 340.7,29 c 0,0 0,4.3 0,5.3 -4.5,-3.8 -10.5,-5.8 -17.9,-5.8 -5.9,0 -11,1.1 -15.2,3.4 -5.2,2.9 -7.9,7.1 -7.9,12.7 0,5.5 2.7,9.8 8.1,12.6 4.2,2.3 9.3,3.4 15.2,3.4 2.9,0 5.8,-0.3 8.4,-1 3.7,-1 6.8,-2.4 9.2,-4.3 0,1.1 0,4.8 0,4.8 h 5.3 V 29 h -5.2 m -35.5,15.7 c 0,-4.1 2,-7.3 5.8,-9.5 3.2,-1.8 7.3,-2.7 12,-2.7 5.8,0 10.3,1.4 13.5,4.2 2.8,2.5 4.2,5.7 4.2,9.6 0,0 0,3.4 0,3.7 -2.2,2.5 -5.5,4.4 -9.7,5.7 -2.5,0.8 -5.2,1.2 -8,1.2 -4.8,0 -8.8,-0.9 -12,-2.6 -3.9,-2.3 -5.8,-5.4 -5.8,-9.6 z"
       id="path31"
       inkscape:connector-curvature="0"
       style="fill:#28466a" /><path
       d="m 357.2,54.3 c -3.7,0 -4.2,1.9 -4.2,3.1 0,1.2 0.6,3.1 4.2,3.1 3.7,0 4.2,-2 4.2,-3.1 0,-1.1 -0.5,-3.1 -4.2,-3.1 z"
       id="path33"
       inkscape:connector-curvature="0"
       style="fill:#28466a" /><path
       d="m 376.3,20.4 c 0,3.1 -2,5.7 -5.6,5.7 -3.6,0 -5.6,-2.6 -5.6,-5.7 0,-3.1 2,-5.7 5.6,-5.7 3.6,0 5.6,2.6 5.6,5.7 z m -10,0 c 0,2.6 1.6,4.6 4.4,4.6 2.8,0 4.4,-2 4.4,-4.6 0,-2.6 -1.6,-4.6 -4.4,-4.6 -2.8,0 -4.4,2 -4.4,4.6 z m 5.5,0.7 c 2.2,-0.4 2,-3.7 -0.5,-3.7 h -2.7 v 5.8 h 1.1 v -2 h 1 l 1.6,2 h 1.2 V 23 Z m -0.6,-2.7 c 1.3,0 1.3,1.9 0,1.9 h -1.6 v -1.9 z"
       id="path35"
       inkscape:connector-curvature="0"
       style="fill:#28466a" /></g><g
     id="brandmark"><path
       id="j-green"
       d="M 13.5,37.7 12,36.3 C 7.5,31.8 6.2,25.5 7.8,19.8 3.3,18.8 0,14.8 0,10 0,4.5 4.5,0 10,0 c 5,0 9.1,3.6 9.9,8.4 5.4,-1.3 11.3,0.2 15.5,4.4 L 36,13.4 28.6,20.8 28,20.2 c -2.4,-2.4 -6.3,-2.4 -8.7,0 -2.4,2.4 -2.4,6.3 0,8.7 l 1.4,1.4 7.4,7.4 7.8,7.8 -7.4,7.4 -7.8,-7.8 z"
       inkscape:connector-curvature="0"
       style="fill:#28466a" /><path
       id="j-orange"
       d="m 21.8,29.5 7.8,-7.8 7.4,-7.4 1.4,-1.4 C 42.9,8.4 49.2,7 54.8,8.6 55.5,3.8 59.7,0 64.8,0 c 5.5,0 10,4.5 10,10 0,5.1 -3.8,9.3 -8.7,9.9 1.6,5.6 0.2,11.9 -4.2,16.3 l -0.6,0.6 -7.4,-7.4 0.6,-0.6 c 2.4,-2.4 2.4,-6.3 0,-8.7 -2.4,-2.4 -6.3,-2.4 -8.7,0 L 44.4,21.5 37,29 29.2,36.8 Z"
       inkscape:connector-curvature="0"
       style="fill:#28466a" /><path
       id="j-red"
       d="m 55,66.8 c -5.7,1.7 -12.1,0.4 -16.6,-4.1 l -0.6,-0.6 7.4,-7.4 0.6,0.6 c 2.4,2.4 6.3,2.4 8.7,0 2.4,-2.4 2.4,-6.3 0,-8.7 l -1.5,-1.5 -7.4,-7.4 -7.8,-7.8 7.4,-7.4 7.8,7.8 7.4,7.4 1.5,1.5 c 4.2,4.2 5.7,10.2 4.4,15.7 4.9,0.7 8.6,4.9 8.6,9.9 0,5.5 -4.5,10 -10,10 -4.9,0 -8.9,-3.5 -9.9,-8 z"
       inkscape:connector-curvature="0"
       style="fill:#28466a" /><path
       id="j-blue"
       d="m 52.2,46 -7.8,7.8 -7.4,7.4 -1.4,1.4 c -4.3,4.3 -10.3,5.7 -15.7,4.4 -1,4.5 -5,7.8 -9.8,7.8 -5.5,0 -10,-4.5 -10,-10 C 0,60 3.3,56.1 7.7,55 6.3,49.5 7.8,43.5 12,39.2 l 0.6,-0.6 7.4,7.4 -0.6,0.6 c -2.4,2.4 -2.4,6.3 0,8.7 2.4,2.4 6.3,2.4 8.7,0 l 1.4,-1.4 7.4,-7.4 7.8,-7.8 z"
       inkscape:connector-curvature="0"
       style="fill:#28466a" /></g></svg>