<?xml version="1.0" encoding="UTF-8" standalone="no"?><!DOCTYPE svg PUBLIC "-//W3C//DTD SVG 1.1//EN" "http://www.w3.org/Graphics/SVG/1.1/DTD/svg11.dtd"><svg width="100%" height="100%" viewBox="0 0 1855 295" version="1.1" xmlns="http://www.w3.org/2000/svg" xmlns:xlink="http://www.w3.org/1999/xlink" xml:space="preserve" xmlns:serif="http://www.serif.com/" style="fill-rule:evenodd;clip-rule:evenodd;stroke-linejoin:round;stroke-miterlimit:2;"><path d="M1825.1,145.7l6.9,6.9c0.1,0.1 0.2,0.1 0.3,0.1c0.1,-0 0.2,-0 0.3,-0.1l6.9,-6.9c0.1,-0.1 0.1,-0.2 0.1,-0.3c-0,-0.1 -0,-0.2 -0.1,-0.3l-0.7,-0.7c-0.1,-0.1 -0.2,-0.1 -0.3,-0.1c-0.1,-0 -0.2,-0 -0.3,0.1l-5.8,5.8l-5.8,-5.8c-0.1,-0.1 -0.2,-0.1 -0.3,-0.1c-0.1,-0 -0.2,-0 -0.3,0.1l-0.7,0.7c-0.1,0.1 -0.1,0.2 -0.1,0.3c-0.3,0.1 -0.2,0.2 -0.1,0.3Z" style="fill-rule:nonzero;"/></svg>