<?xml version="1.0" encoding="utf-8"?>
<svg aria-hidden="true"  version="1.1"  xmlns="http://www.w3.org/2000/svg" xmlns:xlink="http://www.w3.org/1999/xlink" x="18px" y="18px"
	viewBox="0 0 64 64" xml:space="preserve">
<path fill="rgb(255, 255, 255)" d="M59.1,29.3H38c-1.5,0-2.7-1.2-2.7-2.7V7c0-1.5,1.2-2.7,2.7-2.7h21.1c1.5,0,2.7,1.2,2.7,2.7v19.6
	C61.8,28.1,60.6,29.3,59.1,29.3z"/>
<path fill="rgb(255, 255, 255)" d="M26.3,29.3H5.2c-1.5,0-2.7-1.2-2.7-2.7V7c0-1.5,1.2-2.7,2.7-2.7h21.1C27.8,4.3,29,5.5,29,7v19.6
	C29,28.1,27.8,29.3,26.3,29.3z"/>
<path fill="rgb(255, 255, 255)" d="M59.1,60.4H38c-1.5,0-2.7-1.2-2.7-2.7V38.1c0-1.5,1.2-2.7,2.7-2.7h21.1c1.5,0,2.7,1.2,2.7,2.7v19.6
	C61.8,59.2,60.6,60.4,59.1,60.4z"/>
<path fill="rgb(255, 255, 255)" d="M26.3,60.4H5.2c-1.5,0-2.7-1.2-2.7-2.7V38.1c0-1.5,1.2-2.7,2.7-2.7h21.1c1.5,0,2.7,1.2,2.7,2.7v19.6
	C29,59.2,27.8,60.4,26.3,60.4z"/>
</svg>
