<?xml version="1.0" encoding="utf-8"?>
<!DOCTYPE svg PUBLIC "-//W3C//DTD SVG 1.1//EN" "http://www.w3.org/Graphics/SVG/1.1/DTD/svg11.dtd">
<svg version="1.1" xmlns="http://www.w3.org/2000/svg" xmlns:xlink="http://www.w3.org/1999/xlink" x="0px" y="0px" width="300px"
	 height="300px" viewBox="0 0 300 300" enable-background="new 0 0 300 300" xml:space="preserve">
<g id="Ebene_1">
	<g opacity="0.3">
		<path fill="none" stroke="#F6F6F6" stroke-width="0.9875" stroke-miterlimit="10" d="M78.72,30.936
			c-12.275,0-24.552,4.621-33.791,13.992l0,0c-18.613,18.612-18.613,48.972,0,67.584l30.623,30.624
			c3.828,3.828,3.828,9.901,0,13.727l-30.623,30.625c-18.613,18.613-18.613,48.973,0,67.584l0,0
			c9.239,9.24,21.516,13.992,33.791,13.992c12.276,0,24.553-4.621,33.792-13.992l30.624-30.625c1.848-1.846,4.355-2.77,6.863-2.77
			c2.508,0,5.016,0.924,6.866,2.77l30.623,30.625c9.24,9.24,21.516,13.992,33.791,13.992c12.277,0,24.553-4.621,33.793-13.992l0,0
			c18.611-18.611,18.611-48.971,0-67.584l-30.625-30.625c-3.826-3.826-3.826-9.899,0-13.727l30.625-30.624
			c18.611-18.612,18.611-48.972,0-67.584l0,0c-9.24-9.24-21.516-13.992-33.793-13.992c-12.275,0-24.551,4.621-33.791,13.992
			l-30.623,30.624c-1.85,1.848-4.357,2.772-6.866,2.772c-2.508,0-5.016-0.924-6.863-2.772l-30.624-30.624
			C103.273,35.688,90.997,30.936,78.72,30.936L78.72,30.936z"/>
	</g>
	<g opacity="0.3">
		<path fill="none" stroke="#F6F6F6" stroke-width="0.8315" stroke-miterlimit="10" d="M128.136,108.001h52.398v17.236h-34.588
			v14.708c3.447-3.063,7.832-4.597,13.157-4.597c5.324,0,9.824,0.862,13.501,2.585c3.678,1.724,6.473,4.004,8.389,6.837
			c3.752,5.593,5.631,11.605,5.631,18.041c0,8.963-2.644,16.07-7.929,21.316c-5.286,5.248-12.525,7.871-21.717,7.871
			c-9.193,0-16.453-2.201-21.776-6.607c-5.326-4.404-8.331-10.092-9.021-17.064h19.419c0.383,2.223,1.569,4.041,3.563,5.459
			c1.99,1.418,4.672,2.125,8.043,2.125s5.955-1.129,7.756-3.391c1.8-2.258,2.701-5.266,2.701-9.02c0-3.752-0.938-6.665-2.816-8.732
			c-1.877-2.069-4.385-3.104-7.525-3.104c-3.143,0-5.535,0.672-7.182,2.012c-1.648,1.34-2.663,3.007-3.045,4.998h-18.959V108.001z"
			/>
	</g>
	<circle opacity="0.3" fill="none" stroke="#F6F6F6" stroke-width="0.7689" stroke-miterlimit="10" cx="300" cy="0" r="25.5"/>
	<circle opacity="0.3" fill="none" stroke="#F6F6F6" stroke-width="0.7689" stroke-miterlimit="10" cx="0" cy="0.678" r="25.5"/>
	<circle opacity="0.3" fill="none" stroke="#F6F6F6" stroke-width="0.7689" stroke-miterlimit="10" cx="0" cy="300" r="25.5"/>
	<circle opacity="0.3" fill="none" stroke="#F6F6F6" stroke-width="0.7689" stroke-miterlimit="10" cx="300" cy="300" r="25.5"/>
</g>
</svg>
