<svg xmlns="http://www.w3.org/2000/svg" width="71.145" height="71.048"><path fill="#7ac143" d="M12.71 35.762l-1.327-1.328C7.114 30.166 5.882 24.2 7.4 18.783 3.13 17.833 0 14.04 0 9.486 0 4.27 4.27 0 9.486 0c4.742 0 8.632 3.414 9.392 7.97 5.12-1.233 10.718.19 14.702 4.174l.57.568-7.02 7.02-.57-.568a5.84 5.84 0 0 0-8.253 0 5.84 5.84 0 0 0 0 8.252L34.055 43.16l-7.02 7.02-7.4-7.398-6.925-7.02z"/><path fill="#f9a541" d="M20.585 27.982L36.33 12.237c4.175-4.175 10.245-5.502 15.557-3.984.665-4.647 4.648-8.157 9.39-8.157 5.217 0 9.485 4.268 9.485 9.484 0 4.838-3.604 8.822-8.25 9.39 1.518 5.313.188 11.29-3.984 15.463l-.57.568-6.83-7.02.568-.568a5.84 5.84 0 0 0 0-8.252 5.84 5.84 0 0 0-8.251 0l-1.33 1.326-14.42 14.42-7.114-6.925z"/><path fill="#f44321" d="M52.172 63.365c-5.407 1.613-11.478.38-15.745-3.89l-.57-.568 7.02-7.02.57.568a5.84 5.84 0 0 0 8.251 0 5.84 5.84 0 0 0 0-8.252L35.953 28.457l7.02-7.02 15.842 15.84c3.982 3.984 5.405 9.676 4.172 14.893 4.65.664 8.16 4.648 8.16 9.39 0 5.22-4.27 9.486-9.486 9.486-4.745-.093-8.634-3.414-9.488-7.683z"/><path fill="#5091cd" d="M49.42 43.634L33.675 59.382c-4.08 4.078-9.77 5.406-14.893 4.172-.948 4.27-4.743 7.4-9.296 7.4-5.218 0-9.486-4.27-9.486-9.486 0-4.46 3.13-8.254 7.305-9.2-1.328-5.312 0-11.004 4.08-15.082l.568-.57 7.02 7.02-.568.57a5.84 5.84 0 0 0 0 8.252 5.84 5.84 0 0 0 8.252 0L42.402 36.7l7.02 6.924z"/></svg>