<?xml version="1.0" encoding="UTF-8"?>
<svg width="206px" height="28px" viewBox="0 0 206 28" version="1.1" xmlns="http://www.w3.org/2000/svg" xmlns:xlink="http://www.w3.org/1999/xlink">
    <!-- Generator: Sketch 46.2 (44496) - http://www.bohemiancoding.com/sketch -->
    <title>Page 1</title>
    <desc>Created with Sketch.</desc>
    <defs>
        <polygon id="path-1" points="0 0.142049318 0 27.3488596 27.2074363 27.3488596 27.2074363 0.142049318"></polygon>
        <polygon id="path-3" points="0 27.5363805 205.586649 27.5363805 205.586649 0.329537282 0 0.329537282"></polygon>
    </defs>
    <g id="Page-1" stroke="none" stroke-width="1" fill="none" fill-rule="evenodd">
        <g id="Basic-Copy-7" transform="translate(-19.000000, -166.000000)">
            <g id="Page-1" transform="translate(19.074448, 165.838309)">
                <path d="M7.90975149,16.5105395 C7.86592741,15.5869388 8.17368446,12.4655443 13.2737525,9.95933434 C18.3741501,7.45345389 18.9016865,5.4306268 18.9016865,5.4306268 C18.3741501,8.20076972 17.494703,8.99256863 12.6582384,11.5864267 C8.04880232,14.0586977 7.90975149,16.5105395 7.90975149,16.5105395 Z" id="Fill-1" fill="#FFFFFF"></path>
                <path d="M7.90975149,21.8305517 C7.90975149,21.8305517 8.04880232,19.3787099 12.6582384,16.9064389 C17.494703,14.3125808 18.3741501,13.5204524 18.9016865,10.750639 C18.9016865,10.750639 18.3741501,12.7734661 13.2737525,15.2793465 C8.17368446,17.785886 7.86592741,20.906951 7.90975149,21.8305517" id="Fill-3" fill="#FFFFFF"></path>
                <g id="Group-7" transform="translate(0.000000, 0.187521)">
                    <mask id="mask-2" fill="white">
                        <use xlink:href="#path-1"></use>
                    </mask>
                    <g id="Clip-6"></g>
                    <path d="M13.60385,1.52300197 C6.86383884,1.52300197 1.38088675,7.00595406 1.38088675,13.7459652 C1.38088675,20.4849878 6.86383884,25.9682694 13.60385,25.9682694 C20.3435316,25.9682694 25.8268131,20.4849878 25.8268131,13.7459652 C25.8268131,7.00595406 20.3435316,1.52300197 13.60385,1.52300197 M13.60385,27.3488925 C6.10202482,27.3488925 -6.59008664e-05,21.2468018 -6.59008664e-05,13.7459652 C-6.59008664e-05,6.24479905 6.10202482,0.142049318 13.60385,0.142049318 C21.1056751,0.142049318 27.2074363,6.24479905 27.2074363,13.7459652 C27.2074363,21.2468018 21.1056751,27.3488925 13.60385,27.3488925" id="Fill-5" fill="#FFFFFF" mask="url(#mask-2)"></path>
                </g>
                <polygon id="Fill-8" fill="#FFFFFF" points="44.7719283 21.0556893 44.7719283 14.9783114 38.2905781 14.9783114 38.2905781 21.0556893 34.3081888 21.0556893 34.3081888 5.40917607 38.2905781 5.40917607 38.2905781 11.8467022 44.7719283 11.8467022 44.7719283 5.40917607 48.7437735 5.40917607 48.7437735 21.0556893"></polygon>
                <polygon id="Fill-10" fill="#FFFFFF" points="54.7294504 8.54065343 54.7294504 11.6505153 62.1927235 11.6505153 62.1927235 14.781795 54.7294504 14.781795 54.7294504 17.9242778 63.2402178 17.9242778 63.2402178 21.0555575 50.747061 21.0555575 50.747061 5.40904426 63.0003386 5.40904426 63.0003386 8.54065343"></polygon>
                <polygon id="Fill-12" fill="#FFFFFF" points="75.3039974 17.7278273 75.3039974 21.0558211 64.6873679 21.0558211 64.6873679 5.40897836 68.6697572 5.40897836 68.6697572 17.7278273"></polygon>
                <mask id="mask-4" fill="white">
                    <use xlink:href="#path-3"></use>
                </mask>
                <g id="Clip-15"></g>
                <polygon id="Fill-14" fill="#FFFFFF" mask="url(#mask-4)" points="76.0743127 21.0556893 80.056702 21.0556893 80.056702 5.40917607 76.0743127 5.40917607"></polygon>
                <polygon id="Fill-16" fill="#FFFFFF" mask="url(#mask-4)" points="96.7467225 21.0556893 91.9893389 21.0556893 88.606977 16.0689707 85.2351591 21.0556893 80.6089183 21.0556893 86.1956643 13.0579601 80.9690666 5.40917607 85.5953074 5.40917607 88.606977 9.96984552 91.6291907 5.40917607 96.2992556 5.40917607 91.1382293 12.8724492"></polygon>
                <path d="M114.075158,14.70535 C114.075158,16.528827 113.584196,17.9565692 112.615783,18.9493658 C111.649676,19.9408443 110.265099,20.4433384 108.500603,20.4433384 C106.736108,20.4433384 105.349553,19.9408443 104.379163,18.9490363 C103.407784,17.9565692 102.915175,16.528827 102.915175,14.70535 L102.915175,5.26636889 L102.137875,5.26636889 L102.137875,14.70535 C102.137875,16.7703536 102.700998,18.3895379 103.811427,19.5180903 C104.922516,20.6476311 106.500183,21.2203096 108.500603,21.2203096 C110.501024,21.2203096 112.077043,20.6476311 113.184507,19.5177608 C114.290653,18.3892084 114.851799,16.7700241 114.851799,14.70535 L114.851799,5.26636889 L114.075158,5.26636889 L114.075158,14.70535 Z" id="Fill-17" fill="#FFFFFF" mask="url(#mask-4)"></path>
                <polygon id="Fill-18" fill="#FFFFFF" mask="url(#mask-4)" points="120.65783 5.26620414 119.880859 5.26620414 119.880859 21.2204744 127.651889 21.2204744 127.651889 20.4435032 120.65783 20.4435032"></polygon>
                <polygon id="Fill-19" fill="#FFFFFF" mask="url(#mask-4)" points="128.327176 6.04297765 133.684916 6.04297765 133.684916 21.2206062 134.461558 21.2206062 134.461558 6.04297765 139.829842 6.04297765 139.829842 5.26633594 128.327176 5.26633594"></polygon>
                <polygon id="Fill-20" fill="#FFFFFF" mask="url(#mask-4)" points="142.687567 21.2204414 143.464209 21.2204414 143.464209 5.26617118 142.687567 5.26617118"></polygon>
                <polygon id="Fill-21" fill="#FFFFFF" mask="url(#mask-4)" points="163.46476 5.17193295 163.416652 5.26617118 162.883184 5.26617118 156.437091 18.0077742 149.993964 5.35645537 149.948162 5.26617118 149.392618 5.26617118 149.344181 5.17193295 149.344181 5.26617118 148.897044 5.26617118 148.897044 21.2204414 149.673685 21.2204414 149.673685 6.54069394 156.247626 19.4068496 156.293427 19.4968043 156.538579 19.4968043 163.137232 6.54069394 163.158321 21.2204414 163.934962 21.2204414 163.934962 5.26617118 163.46476 5.26617118"></polygon>
                <path d="M170.050003,15.6861196 L174.280509,6.34994388 L178.603935,15.6861196 L170.050003,15.6861196 Z M174.635055,5.26620414 L173.932882,5.26620414 L166.731564,20.9871853 L166.624476,21.2204744 L167.532589,21.2204744 L169.693149,16.4627613 L178.963424,16.4627613 L181.145731,21.2204744 L182.021883,21.2204744 L174.679538,5.36176039 L174.635055,5.26620414 Z" id="Fill-22" fill="#FFFFFF" mask="url(#mask-4)"></path>
                <polygon id="Fill-23" fill="#FFFFFF" mask="url(#mask-4)" points="180.81458 6.04297765 186.17232 6.04297765 186.17232 21.2206062 186.948962 21.2206062 186.948962 6.04297765 192.317246 6.04297765 192.317246 5.26633594 180.81458 5.26633594"></polygon>
                <polygon id="Fill-24" fill="#FFFFFF" mask="url(#mask-4)" points="195.951811 20.4433384 195.951811 13.3968883 204.244446 13.3968883 204.244446 12.6202466 195.951811 12.6202466 195.951811 6.0430106 205.270193 6.0430106 205.270193 5.26603938 195.175169 5.26603938 195.175169 21.2203096 205.586518 21.2203096 205.586518 20.4433384"></polygon>
            </g>
        </g>
    </g>
</svg>