<svg width="206" height="28" viewBox="0 0 206 28" xmlns="http://www.w3.org/2000/svg" xmlns:xlink="http://www.w3.org/1999/xlink"><defs><path id="a" d="M0 .142v27.207h27.207v-27.207z"/><path id="c" d="M0 27.536h205.587v-27.207h-205.587z"/></defs><g transform="translate(-19 -166) translate(19.074 165.838)" fill="none"><path d="M7.91 16.511c-.044-.924.264-4.045 5.364-6.551 5.1-2.506 5.628-4.529 5.628-4.529-.528 2.77-1.407 3.562-6.243 6.156-4.609 2.472-4.748 4.924-4.748 4.924z" fill="#fff"/><path d="M7.91 21.831s.139-2.452 4.748-4.924c4.836-2.594 5.716-3.386 6.243-6.156 0 0-.528 2.023-5.628 4.529-5.1 2.507-5.408 5.628-5.364 6.551" fill="#fff"/><g transform="translate(0 .188)"><mask id="b"><use xlink:href="#a"/></mask><path d="M13.604 1.523c-6.74 0-12.223 5.483-12.223 12.223 0 6.739 5.483 12.222 12.223 12.222 6.74 0 12.223-5.483 12.223-12.222 0-6.74-5.483-12.223-12.223-12.223m0 25.826c-7.502 0-13.604-6.102-13.604-13.603 0-7.501 6.102-13.604 13.604-13.604 7.502 0 13.604 6.103 13.604 13.604 0 7.501-6.102 13.603-13.604 13.603" fill="#fff" mask="url(#b)"/></g><path fill="#fff" d="M44.772 21.056v-6.077h-6.481v6.077h-3.982v-15.647h3.982v6.438h6.481v-6.438h3.972v15.647z"/><path fill="#fff" d="M54.729 8.541v3.11h7.463v3.131h-7.463v3.142h8.511v3.131h-12.493v-15.647h12.253v3.132z"/><path fill="#fff" d="M75.304 17.728v3.328h-10.617v-15.647h3.982v12.319z"/><mask id="d"><use xlink:href="#c"/></mask><path fill="#fff" mask="url(#d)" d="M76.074 21.056h3.982v-15.647h-3.982z"/><path fill="#fff" mask="url(#d)" d="M96.747 21.056h-4.757l-3.382-4.987-3.372 4.987h-4.626l5.587-7.998-5.227-7.649h4.626l3.012 4.561 3.022-4.561h4.67l-5.161 7.463z"/><path d="M114.075 14.705c0 1.823-.491 3.251-1.459 4.244-.966.991-2.351 1.494-4.115 1.494-1.764 0-3.151-.502-4.121-1.494-.971-.992-1.464-2.42-1.464-4.244v-9.439h-.777v9.439c0 2.065.563 3.684 1.674 4.813 1.111 1.13 2.689 1.702 4.689 1.702s3.576-.573 4.684-1.703c1.106-1.129 1.667-2.748 1.667-4.812v-9.439h-.777v9.439z" fill="#fff" mask="url(#d)"/><path fill="#fff" mask="url(#d)" d="M120.658 5.266h-.777v15.954h7.771v-.777h-6.994z"/><path fill="#fff" mask="url(#d)" d="M128.327 6.043h5.358v15.178h.777v-15.178h5.368v-.777h-11.503z"/><path fill="#fff" mask="url(#d)" d="M142.688 21.22h.777v-15.954h-.777z"/><path fill="#fff" mask="url(#d)" d="M163.465 5.172l-.048.094h-.533l-6.446 12.742-6.443-12.651-.046-.09h-.556l-.048-.094v.094h-.447v15.954h.777v-14.68l6.574 12.866.046.09h.245l6.599-12.956.021 14.68h.777v-15.954h-.47z"/><path d="M170.05 15.686l4.231-9.336 4.323 9.336h-8.554zm4.585-10.42h-.702l-7.201 15.721-.107.233h.908l2.161-4.758h9.27l2.182 4.758h.876l-7.342-15.859-.044-.096z" fill="#fff" mask="url(#d)"/><path fill="#fff" mask="url(#d)" d="M180.815 6.043h5.358v15.178h.777v-15.178h5.368v-.777h-11.503z"/><path fill="#fff" mask="url(#d)" d="M195.952 20.443v-7.046h8.293v-.777h-8.293v-6.577h9.318v-.777h-10.095v15.954h10.411v-.777z"/></g></svg>