<?xml version="1.0" encoding="utf-8"?>
<!-- Generator: Adobe Illustrator 18.1.0, SVG Export Plug-In . SVG Version: 6.00 Build 0)  -->
<!DOCTYPE svg PUBLIC "-//W3C//DTD SVG 1.1//EN" "http://www.w3.org/Graphics/SVG/1.1/DTD/svg11.dtd">
<svg version="1.1" xmlns="http://www.w3.org/2000/svg" xmlns:xlink="http://www.w3.org/1999/xlink" x="0px" y="0px"
	 viewBox="0 0 224.1 224.7" enable-background="new 0 0 224.1 224.7" xml:space="preserve">
<g id="TM">
	<path id="T" fill="#A09B9A" d="M178.6,79.6V80h-1.3v3.5h-0.5V80h-1.3v-0.5H178.6z"/>
	<path id="V" fill="#A09B9A" d="M179.1,79.6h0.8l1.1,3.3l1.1-3.3h0.8v3.9h-0.5v-2.3c0-0.1,0-0.2,0-0.4c0-0.2,0-0.4,0-0.6l-1.1,3.3
		h-0.5l-1.1-3.3v0.1c0,0.1,0,0.2,0,0.4s0,0.3,0,0.4v2.3h-0.5V79.6z"/>
</g>
<g id="brandmark-flat">
	<path id="j-green" fill="#7AC143" d="M64.2,113l-2.9-2.9c-8.9-8.9-11.7-21.7-8.3-33c-8.9-2-15.6-10-15.6-19.5c0-11.1,9-20,20-20
		c10,0,18.2,7.3,19.8,16.8c10.8-2.5,22.6,0.4,31.1,8.8l1.2,1.2L94.6,79.1L93.5,78c-4.8-4.8-12.6-4.8-17.4,0
		c-4.8,4.8-4.8,12.6,0,17.4l2.9,2.9L93.8,113l15.6,15.6l-14.8,14.8L79,127.8L64.2,113L64.2,113z"/>
	<path id="j-orange_1_" fill="#F9A541" d="M80.7,96.5l15.6-15.6l14.8-14.8l2.9-2.9c8.9-8.9,21.6-11.7,32.8-8.4
		c1.3-9.8,9.7-17.3,19.8-17.3c11.1,0,20,9,20,20c0,10.2-7.6,18.6-17.4,19.9c3.2,11.2,0.4,23.8-8.4,32.7l-1.2,1.2L145,96.5l1.1-1.1
		c4.8-4.8,4.8-12.6,0-17.4c-4.8-4.8-12.5-4.8-17.4,0l-2.9,2.9l-14.8,14.8l-15.6,15.6L80.7,96.5L80.7,96.5z"/>
	<path id="j-red" fill="#F44321" d="M147.3,171.1c-11.4,3.5-24.2,0.7-33.2-8.3l-1.1-1.1l14.8-14.8l1.1,1.1c4.8,4.8,12.6,4.8,17.4,0
		c4.8-4.8,4.8-12.5,0-17.4l-2.9-2.9L128.5,113l-15.6-15.6l14.8-14.8l15.6,15.6l14.8,14.8l2.9,2.9c8.5,8.5,11.4,20.5,8.8,31.3
		c9.7,1.4,17.2,9.7,17.2,19.8c0,11.1-9,20-20,20C157.2,187.1,149.2,180.3,147.3,171.1L147.3,171.1z"/>
	<path id="j-blue" fill="#5091CD" d="M141.5,129.6l-15.6,15.6L111.2,160l-2.9,2.9c-8.5,8.5-20.6,11.4-31.5,8.7
		c-2,8.9-10,15.5-19.5,15.5c-11.1,0-20-9-20-20c0-9.5,6.6-17.4,15.4-19.5c-2.8-11,0.1-23.1,8.7-31.7l1.1-1.1l14.8,14.8l-1.1,1.1
		c-4.8,4.8-4.8,12.6,0,17.4c4.8,4.8,12.6,4.8,17.4,0l2.9-2.9l14.8-14.8l15.6-15.6L141.5,129.6L141.5,129.6z"/>
</g>
</svg>
