<?xml version="1.0" encoding="UTF-8"?>
<svg width="70px" height="84px" viewBox="0 0 70 84" version="1.1" xmlns="http://www.w3.org/2000/svg" xmlns:xlink="http://www.w3.org/1999/xlink">
    <!-- Generator: Sketch 46.2 (44496) - http://www.bohemiancoding.com/sketch -->
    <title>Group</title>
    <desc>Created with Sketch.</desc>
    <defs></defs>
    <g id="Page-1" stroke="none" stroke-width="1" fill="none" fill-rule="evenodd">
        <g id="Group-2" transform="translate(-402.000000, -289.000000)" fill-rule="nonzero" fill="#0080FE">
            <g id="Design" transform="translate(333.000000, 227.000000)">
                <g id="Logo" transform="translate(40.000000, 41.000000)">
                    <g id="logo-white" transform="translate(29.000000, 21.000000)">
                        <g id="Group">
                            <path d="M67.4375065,46.6925984 C66.0102577,45.2713641 64.5830089,45.2713641 63.5125723,47.047907 C60.3012624,50.9563015 56.7331404,54.5093873 53.1650184,57.7071646 C40.6765912,68.3664222 26.0472909,74.4066682 9.99074171,77.2491369 C7.84986848,77.6044454 7.13624408,76.8938283 7.13624408,74.7619768 C7.13624408,71.5641995 7.13624408,68.0111136 7.13624408,64.8133363 L7.13624408,64.8133363 L7.13624408,64.8133363 L7.13624408,64.8133363 L7.13624408,18.2679115 L7.13624408,16.13606 C7.13624408,15.4254428 7.13624408,14.7148257 8.20668069,14.3595171 C9.6339295,13.2935913 10.7043661,15.0701343 12.1316149,16.13606 C24.2632299,24.6634661 36.3948448,33.5461807 48.5264597,42.0735868 C50.3105207,43.1395126 50.3105207,43.8501297 48.8832719,45.2713641 C39.6061546,53.7987702 29.2586007,59.8390161 17.1269858,63.392102 C12.8452393,64.4580278 12.8452393,64.4580278 12.8452393,69.0770394 C12.8452393,70.8535823 13.2020515,71.2088909 14.9861126,70.8535823 C18.5542346,70.1429651 22.1223566,69.0770394 25.3336665,68.0111136 C38.535718,63.0367934 49.5968963,55.5753131 58.8740136,44.9160555 C61.0148868,42.4288954 61.0148868,42.784204 58.5172014,40.6523525 C39.2493424,26.7953176 20.6951078,13.6488999 2.14087322,0.502482222 C1.78406102,0.147173635 1.07043661,-0.208134951 0.713624408,0.147173635 C0,0.147173635 0.356812204,0.857790808 0.356812204,1.56840798 C0.356812204,4.76618526 0.356812204,7.96396253 0.356812204,11.1617398 C0.356812204,12.2276656 0.356812204,12.5829742 0.356812204,13.2935913 L0.356812204,24.6634661 L0.356812204,24.6634661 L0.356812204,33.9014893 L0.356812204,38.1651924 L0.356812204,44.9160555 L0.356812204,49.8903757 L0.356812204,55.2200045 L0.356812204,55.2200045 L0,70.4982737 L0,70.4982737 C0,71.5641995 0,72.2748167 0,72.9854338 C0,75.8279025 0,79.0256798 0,81.8681485 C0,83.2893828 0.356812204,84 2.14087322,84 C9.6339295,83.6446914 16.7701736,82.5787657 23.9064177,80.4469141 C41.7470278,75.1172853 56.3763282,65.5239535 68.5079431,51.6669186 C70.6488163,49.1797585 70.6488163,49.1797585 67.4375065,46.6925984 Z" id="XMLID_5_"></path>
                            <path d="M31.8149284,42.5397382 C32.1728016,42.1870202 32.1728016,41.8343023 31.8149284,41.4815843 C27.5204499,38.3071228 23.2259714,35.4853791 19.2893661,32.6636355 C18.5736196,32.3109175 18.2157464,31.6054816 17.8578732,31.9581996 C17.5,31.9581996 17.5,32.3109175 17.5,32.6636355 L17.5,33.3690714 L17.5,49.2413793 C23.5838446,48.8886614 28.5940695,45.3614818 31.8149284,42.5397382 Z" id="XMLID_4_"></path>
                        </g>
                    </g>
                </g>
            </g>
        </g>
    </g>
</svg>