<?xml version="1.0" encoding="utf-8"?>
<!-- Generator: Adobe Illustrator 20.1.0, SVG Export Plug-In . SVG Version: 6.00 Build 0)  -->
<svg version="1.1" id="Layer_1" xmlns="http://www.w3.org/2000/svg" xmlns:xlink="http://www.w3.org/1999/xlink" x="0px" y="0px"
	 width="140.1px" height="24.2px" viewBox="0 0 140.1 24.2" style="enable-background:new 0 0 140.1 24.2;" xml:space="preserve">
<style type="text/css">
	.st0{fill:#FFFFFF;}
</style>
<g>
	<g>
		<path id="XMLID_5_" class="st0" d="M19,13.5c-0.4-0.4-0.8-0.4-1.1,0.1c-0.9,1.1-1.9,2.1-2.9,3c-3.5,3-7.6,4.7-12.1,5.5
			c-0.6,0.1-0.8-0.1-0.8-0.7c0-0.9,0-1.9,0-2.8l0,0l0,0l0,0V5.5V4.9c0-0.2,0-0.4,0.3-0.5c0.4-0.3,0.7,0.2,1.1,0.5
			c3.4,2.4,6.8,4.9,10.2,7.3c0.5,0.3,0.5,0.5,0.1,0.9c-2.6,2.4-5.5,4.1-8.9,5.1c-1.2,0.3-1.2,0.3-1.2,1.6c0,0.5,0.1,0.6,0.6,0.5
			c1-0.2,2-0.5,2.9-0.8c3.7-1.4,6.8-3.5,9.4-6.5c0.6-0.7,0.6-0.6-0.1-1.2C11.1,7.9,5.9,4.2,0.7,0.5C0.6,0.4,0.4,0.3,0.3,0.4
			c-0.2,0-0.1,0.2-0.1,0.4c0,0.9,0,1.8,0,2.7c0,0.3,0,0.4,0,0.6v3.2l0,0v2.6v1.2V13v1.4v1.5l0,0l-0.1,4.3l0,0c0,0.3,0,0.5,0,0.7
			c0,0.8,0,1.7,0,2.5c0,0.4,0.1,0.6,0.6,0.6c2.1-0.1,4.1-0.4,6.1-1c5-1.5,9.1-4.2,12.5-8.1C19.9,14.2,19.9,14.2,19,13.5z"/>
		<path id="XMLID_4_" class="st0" d="M9.1,12.3c0.1-0.1,0.1-0.2,0-0.3c-1.2-0.9-2.4-1.7-3.5-2.5C5.4,9.4,5.3,9.2,5.2,9.3
			c-0.1,0-0.1,0.1-0.1,0.2v0.2v4.5C6.8,14.1,8.2,13.1,9.1,12.3z"/>
	</g>
	<g>
		<path class="st0" d="M53.2,5.7c-0.8-0.7-2.1-1.1-3.6-1.1h-3.2c-0.3,0-0.4,0.1-0.5,0.2c-0.1,0.2-0.2,0.3-0.2,0.5v11.3
			c0,0.1,0,0.3,0.1,0.4s0.2,0.2,0.4,0.2h1c0.4,0,0.6-0.2,0.6-0.5v-3.2c0.6,0.1,1.2,0.1,1.7,0.1c1.4,0,2.6-0.4,3.6-1.2s1.5-2,1.5-3.4
			C54.5,7.6,54.1,6.5,53.2,5.7z M51.4,11.2c-0.3,0.2-0.6,0.4-1,0.5s-0.8,0.2-1.1,0.2s-0.6,0-0.8,0l-0.7-0.2V6.4h1.8
			c0.4,0,0.8,0.1,1.2,0.2C51.9,7,52.5,7.8,52.5,9C52.4,9.9,52,10.7,51.4,11.2z"/>
		<path class="st0" d="M61.2,8.6c-0.7-0.6-1.5-0.9-2.6-0.9c-1.2,0-2.1,0.2-2.8,0.6c-0.4,0.2-0.5,0.4-0.5,0.7c0,0.1,0.1,0.3,0.2,0.6
			c0.1,0.3,0.3,0.4,0.4,0.4c0.1,0,0.2,0,0.3-0.1c0.7-0.4,1.4-0.6,2-0.6c0.7,0,1.3,0.2,1.7,0.6c0.2,0.2,0.4,0.4,0.5,0.7
			s0.2,0.6,0.2,0.8s0,0.5,0,0.7c-0.7-0.6-1.5-0.8-2.4-0.8c-1,0-1.7,0.2-2.4,0.6c-0.7,0.5-1.1,1.3-1.1,2.3c0,0.9,0.3,1.7,1,2.2
			c0.3,0.3,0.6,0.4,1,0.6c0.4,0.1,0.8,0.2,1.2,0.2s0.7-0.1,1.1-0.1c0.7-0.2,1.2-0.5,1.6-1V17c0,0.3,0.2,0.4,0.5,0.4h0.8
			c0.2,0,0.3-0.1,0.3-0.1c0.1-0.1,0.1-0.2,0.1-0.3v-5c0-0.2,0-0.4,0-0.5C62.4,10.3,62,9.3,61.2,8.6z M59.8,15.3
			c-0.2,0.1-0.4,0.3-0.6,0.3c-0.3,0.1-0.5,0.1-0.9,0.1s-0.7-0.1-1-0.4C57.2,15.2,57,15,57,14.9c-0.2-0.1-0.2-0.3-0.2-0.5
			s0.1-0.4,0.1-0.6c0.1-0.2,0.3-0.3,0.5-0.5s0.5-0.3,0.9-0.3c0.5,0,1,0.1,1.3,0.3c0.4,0.2,0.6,0.6,0.7,1
			C60.3,14.6,60.2,14.9,59.8,15.3z"/>
		<path class="st0" d="M70.8,16.6c-0.4-0.2-0.8-0.4-1.2-0.5c-0.4-0.1-1-0.2-1.5-0.2c-0.6,0-1.1,0.1-1.6,0.4c0.1-0.1,0.3-0.3,0.4-0.5
			c0.2-0.2,0.9-0.7,2.1-1.4c0.2-0.1,0.4-0.3,0.6-0.4c0.2-0.2,0.4-0.3,0.6-0.5s0.4-0.4,0.5-0.6c0.1-0.2,0.3-0.5,0.3-0.7
			c0.1-0.3,0.1-0.5,0.1-0.7s0-0.4,0-0.5c0.4-0.8,0.6-1.8,0.6-2.8c0-1.3-0.2-1.9-0.7-1.9h-0.7c-0.1,0-0.2,0-0.3,0.1
			c-0.1,0-0.1,0.1-0.1,0.1c0,0.1-0.1,0.1-0.1,0.3c0,0.1,0.1,0.4,0.2,1s0.2,1.1,0.2,1.6c-0.1-0.2-0.3-0.4-0.4-0.6
			c-0.6-0.6-1.5-0.9-2.6-0.9c-1,0-1.9,0.3-2.6,0.9c-0.8,0.6-1.2,1.5-1.2,2.6c0,0.9,0.4,1.7,1.1,2.3c0.6,0.6,1.4,0.9,2.3,1
			c-0.6,0.3-1.1,0.7-1.5,1.1c-1.2,1.1-1.8,2.2-1.8,3.3c0,0.9,0.4,1.7,1.3,2.2c0.8,0.5,1.8,0.8,2.9,0.8s2.1-0.3,2.9-0.8
			c0.9-0.6,1.4-1.4,1.4-2.3C72,17.8,71.6,17.1,70.8,16.6z M66.7,12.9c-0.3-0.1-0.4-0.2-0.6-0.4s-0.3-0.4-0.4-0.6
			c-0.1-0.2-0.2-0.5-0.2-0.8s0.1-0.5,0.2-0.7c0.3-0.6,0.9-1,1.8-1c0.6,0,1,0.1,1.4,0.4c0.4,0.3,0.6,0.7,0.6,1.3c0,0.5-0.2,1-0.6,1.3
			c-0.2,0.2-0.4,0.3-0.6,0.4C68,13,67.8,13,67.5,13S67,13,66.7,12.9z M69.9,19.4c-0.4,0.5-1.1,0.8-2.1,0.8c-0.6,0-1.2-0.1-1.6-0.4
			c-0.2-0.1-0.4-0.3-0.5-0.5s-0.2-0.4-0.2-0.7c0-0.3,0.1-0.5,0.3-0.8c0.4-0.3,1-0.4,2-0.4c0.6,0,1.2,0.1,1.5,0.3
			c0.2,0.1,0.4,0.3,0.6,0.4c0.2,0.2,0.3,0.4,0.3,0.6C70,19,70,19.2,69.9,19.4z"/>
		<path class="st0" d="M79.9,15.2c-0.1-0.2-0.3-0.3-0.4-0.3S79.3,15,79.2,15c-0.7,0.5-1.4,0.7-2.2,0.7c-0.8,0-1.5-0.3-2-0.7
			c-0.5-0.4-0.7-1-0.7-1.8V13c0.9,0.2,1.6,0.4,2.2,0.4c1.1,0,1.9-0.2,2.6-0.6c0.8-0.5,1.1-1.2,1.1-2.1c0-0.9-0.3-1.7-1-2.2
			c-0.3-0.3-0.6-0.4-1.1-0.6c-0.4-0.1-0.9-0.2-1.5-0.2S75.4,7.8,74.9,8c-1.8,0.6-2.7,2.2-2.7,4.7c0,1.4,0.4,2.6,1.3,3.4
			c0.4,0.4,0.9,0.7,1.4,0.9c0.6,0.2,1.1,0.3,1.7,0.3c0.5,0,1.1-0.1,1.6-0.2c0.3-0.1,0.5-0.1,0.7-0.2s0.4-0.2,0.6-0.3
			c0.2-0.1,0.3-0.2,0.4-0.4c0.1-0.1,0.2-0.3,0.2-0.4s0-0.3-0.1-0.4L79.9,15.2z M74.6,10.5c0.4-0.7,1.1-1.1,2.1-1.1s1.6,0.4,1.6,1.2
			s-0.7,1.2-2.2,1.2c-0.7,0-1.3-0.1-1.8-0.4C74.4,11.1,74.5,10.8,74.6,10.5z"/>
		<path class="st0" d="M93.8,11.2c-0.4-0.4-1-0.6-1.6-0.7c0.4-0.2,0.8-0.4,1-0.7c0.4-0.5,0.7-1.2,0.7-2c0-1.2-0.5-2-1.4-2.6
			c-0.8-0.5-1.7-0.7-2.8-0.7h-3.9c-0.1,0-0.3,0-0.3,0.1c-0.3,0.1-0.4,0.4-0.4,0.8v11.2c0,0.2,0.1,0.4,0.2,0.6s0.3,0.3,0.6,0.3h4
			c1.4,0,2.6-0.3,3.5-0.9c1-0.7,1.5-1.7,1.5-3C94.8,12.5,94.4,11.8,93.8,11.2z M91.3,12c0.2,0.1,0.4,0.2,0.5,0.3s0.3,0.3,0.3,0.5
			s0.1,0.4,0.1,0.8c0,0.3-0.1,0.6-0.2,0.8c-0.4,0.6-1.1,1-2.3,1h-2.4v-3.6h0.5c0.6,0,1.1,0,1.6,0c0.4,0,0.8,0,1.2,0.1
			C90.9,11.9,91.1,11.9,91.3,12z M91,9.2c-0.4,0.3-1,0.5-1.8,0.5c-0.5,0-1.1,0.1-1.9,0.1V6.5h1.8c0.8,0,1.4,0.1,1.8,0.4
			c0.4,0.2,0.6,0.6,0.6,1.2C91.5,8.5,91.4,8.9,91,9.2z"/>
		<path class="st0" d="M104.3,13.6V8.5c0-0.2-0.1-0.3-0.2-0.5c-0.1-0.1-0.3-0.2-0.5-0.2h-0.8c-0.2,0-0.4,0.1-0.5,0.2
			c-0.1,0.1-0.2,0.3-0.2,0.5v4.9c0,0.6-0.3,1.1-0.7,1.5c-0.2,0.2-0.4,0.4-0.7,0.5s-0.5,0.2-0.8,0.2s-0.5,0-0.7-0.1
			c-0.5-0.2-0.8-0.9-0.8-2.1V8.5c0-0.4-0.3-0.7-0.7-0.7h-0.9c-0.2,0-0.4,0.1-0.5,0.2c-0.1,0.1-0.2,0.3-0.2,0.5v4.9
			c0,1.3,0.3,2.4,0.8,3c0.5,0.7,1.4,1,2.5,1c0.8,0,1.5-0.2,2.1-0.5c0.5-0.3,0.8-0.6,1.1-1.1c0.1,0.4,0.2,0.7,0.3,0.9
			c0.1,0.2,0.3,0.5,0.8,0.5h0.4c0.4,0,0.6-0.2,0.6-0.7c0-0.1,0-0.2,0-0.3C104.4,15.6,104.3,14.7,104.3,13.6z"/>
		<path class="st0" d="M107.3,6.5c0.4,0,0.8-0.1,1-0.4c0.3-0.3,0.4-0.6,0.4-1c0-0.2,0-0.4-0.1-0.6c-0.3-0.6-0.7-0.9-1.3-0.9
			c-0.4,0-0.8,0.1-1,0.4s-0.4,0.6-0.4,1s0.1,0.8,0.4,1C106.6,6.3,106.9,6.5,107.3,6.5z"/>
		<path class="st0" d="M109.8,15.5c-0.1-0.3-0.3-0.3-0.4-0.3s-0.2,0-0.5,0.1c-0.1,0-0.2,0.1-0.3,0.1c-0.1,0-0.3,0-0.3-0.4V8.5
			c0-0.2,0-0.3-0.1-0.4c-0.1-0.1-0.3-0.2-0.4-0.2h-1c-0.2,0-0.3,0.1-0.4,0.2c-0.1,0.1-0.2,0.3-0.2,0.5V15c0,0.9,0.2,1.6,0.5,2
			c0.2,0.2,0.4,0.4,0.6,0.4c0.2,0.1,0.5,0.1,0.9,0.1s0.8-0.1,1.2-0.3c0.4-0.2,0.7-0.5,0.7-0.8c0-0.1,0-0.2-0.1-0.3L109.8,15.5z"/>
		<path class="st0" d="M114.5,15.5c-0.1-0.3-0.3-0.3-0.4-0.3s-0.2,0-0.5,0.1c-0.1,0-0.2,0.1-0.3,0.1c-0.1,0-0.3,0-0.3-0.4V3.2
			c0-0.2,0-0.3-0.1-0.4s-0.3-0.2-0.4-0.2h-1.1c-0.2,0-0.3,0.1-0.4,0.2s-0.2,0.3-0.2,0.4v11.7c0,1.7,0.7,2.6,2,2.6
			c0.7,0,1.3-0.2,1.7-0.5c0.3-0.2,0.4-0.4,0.4-0.6c0-0.1,0-0.2-0.1-0.3L114.5,15.5z"/>
		<path class="st0" d="M123.7,13.7V3.2c0-0.2,0-0.3-0.1-0.4s-0.3-0.2-0.4-0.2H122c-0.2,0-0.3,0.1-0.4,0.2s-0.2,0.3-0.2,0.4v5.5
			c-0.6-0.8-1.5-1.1-2.7-1.1s-2.2,0.5-3,1.5c-0.7,0.9-1,2.1-1,3.5c0,1.3,0.4,2.5,1.1,3.4c0.3,0.4,0.8,0.8,1.3,1.1
			c0.5,0.3,1,0.4,1.5,0.4s0.9-0.1,1.3-0.1c0.9-0.3,1.6-0.8,2-1.5c0.1,0.4,0.2,0.7,0.3,1c0.1,0.3,0.4,0.5,0.8,0.5h0.4
			c0.2,0,0.4-0.1,0.5-0.2s0.2-0.3,0.2-0.4s0-0.2,0-0.3C123.8,15.7,123.7,14.8,123.7,13.7z M121.6,12.7c0,0.8-0.3,1.5-0.8,2.1
			c-0.5,0.5-1,0.8-1.7,0.8s-1.2-0.3-1.6-0.9c-0.2-0.3-0.3-0.6-0.4-0.9c-0.1-0.4-0.1-0.7-0.1-1.1c0-0.8,0.2-1.5,0.5-2.1
			c0.4-0.7,0.9-1,1.6-1s1.3,0.3,1.7,0.8C121.3,11,121.6,11.7,121.6,12.7z"/>
		<path class="st0" d="M131.8,12.9c0.8-0.5,1.2-1.2,1.2-2.2s-0.3-1.7-1-2.3c-0.3-0.3-0.7-0.4-1.1-0.6c-0.4-0.1-1-0.2-1.5-0.2
			c-0.6,0-1.2,0.1-1.8,0.3c-1.8,0.6-2.8,2.2-2.8,4.8c0,1.5,0.4,2.6,1.3,3.5c0.4,0.4,0.9,0.7,1.5,0.9c0.6,0.2,1.1,0.3,1.7,0.3
			c0.5,0,1.1-0.1,1.6-0.1c0.3-0.1,0.5-0.1,0.8-0.2s0.4-0.2,0.6-0.3s0.4-0.3,0.5-0.4c0.1-0.2,0.2-0.3,0.2-0.5c0-0.1,0-0.3-0.1-0.4
			l-0.2-0.4c-0.1-0.2-0.3-0.4-0.6-0.4c-0.1,0-0.3,0-0.4,0.1c-0.6,0.4-1.3,0.7-2.1,0.7s-1.5-0.2-1.9-0.7c-0.4-0.4-0.7-1-0.7-1.7
			c0.8,0.2,1.5,0.3,2.2,0.3C130.3,13.5,131.1,13.3,131.8,12.9z M130.8,10.6c0,0.7-0.6,1.1-2,1.1c-0.7,0-1.2-0.1-1.7-0.3
			c0-0.3,0.1-0.6,0.2-0.8c0.4-0.7,1-1,2-1C130.8,9.6,130.8,10.4,130.8,10.6z"/>
		<path class="st0" d="M139.7,7.9c-0.3-0.2-0.7-0.3-1.4-0.3c-0.6,0-1.1,0.2-1.5,0.6c-0.2,0.2-0.4,0.4-0.5,0.7
			c-0.1,0.1-0.1,0.3-0.2,0.4c-0.1-0.4-0.2-0.7-0.3-1s-0.4-0.5-0.8-0.5h-0.4c-0.3,0-0.6,0.1-0.6,0.7c0,0.1,0,0.2,0.1,0.6
			c0.1,0.3,0.1,0.9,0.1,1.9v5.6c0,0.2,0.1,0.3,0.2,0.5c0.1,0.1,0.3,0.2,0.5,0.2h1c0.2,0,0.4-0.1,0.5-0.2s0.2-0.3,0.2-0.5v-4.4
			c0-0.6,0.2-1.2,0.5-1.7c0.1-0.3,0.3-0.4,0.5-0.6c0.2-0.1,0.4-0.2,0.5-0.2c0.2,0,0.4,0.1,0.8,0.1c0.2,0.1,0.3,0.1,0.5,0.1
			c0.3,0,0.5-0.2,0.6-0.5l0.1-1C139.9,8.2,139.8,8.1,139.7,7.9z"/>
		<path class="st0" d="M28.3,9.8l-0.8-0.3c-1-0.4-1.5-1-1.5-1.7c0-0.5,0.2-0.9,0.5-1.1c0.2-0.1,0.4-0.2,0.6-0.3s0.5-0.1,0.9-0.1
			s0.8,0.1,1.2,0.3c0.4,0.2,0.7,0.3,1,0.5c0.2,0.1,0.4,0.2,0.5,0.2s0.2,0,0.3-0.1c0.1-0.1,0.2-0.3,0.4-0.6c0.1-0.3,0.2-0.5,0.2-0.6
			c0-0.2-0.2-0.5-0.6-0.8c-0.8-0.5-1.7-0.8-2.9-0.8c-1.1,0-2,0.3-2.8,0.9S24,6.7,24,7.8c0,1,0.3,1.8,1.1,2.5
			c0.3,0.3,0.7,0.6,1.1,0.8s0.8,0.4,1.2,0.6c0.4,0.1,0.7,0.3,1,0.4c1,0.5,1.5,1.1,1.5,1.8c0,0.5-0.2,1-0.6,1.3
			c-0.2,0.1-0.4,0.2-0.6,0.3c-0.3,0.1-0.6,0.1-1,0.1s-0.9-0.1-1.4-0.3c-0.2-0.1-0.4-0.2-0.7-0.3c-0.2-0.1-0.4-0.2-0.5-0.3
			c-0.1-0.1-0.3-0.1-0.4-0.1s-0.2,0.1-0.3,0.2c-0.1,0.1-0.1,0.2-0.3,0.5c-0.2,0.2-0.3,0.5-0.3,0.7c0,0.2,0.2,0.4,0.6,0.7
			c0.9,0.6,2.1,0.8,3.4,0.8c1.1,0,2-0.3,2.8-1c0.8-0.7,1.3-1.6,1.3-2.7c0-1-0.4-1.9-1.2-2.6C30.2,10.7,29.4,10.3,28.3,9.8z"/>
		<path class="st0" d="M40.7,5.7c-0.8-0.7-2-1.1-3.6-1.1h-3.3c-0.2,0-0.4,0.1-0.5,0.2s-0.1,0.3-0.1,0.5v11.4c0,0.1,0,0.3,0.1,0.4
			s0.2,0.2,0.4,0.2h1c0.4,0,0.6-0.2,0.6-0.5l0,0v-3.2c0.7,0.1,1.2,0.1,1.7,0.1c1.5,0,2.6-0.4,3.6-1.2s1.5-2,1.5-3.4
			C42,7.6,41.6,6.5,40.7,5.7z M38.9,11.2c-0.3,0.2-0.6,0.4-1,0.5s-0.8,0.2-1.1,0.2s-0.6,0-0.8,0l-0.6-0.1l0,0V6.4h1.8
			c0.4,0,0.8,0.1,1.2,0.2c0.9,0.3,1.4,1.1,1.4,2.4C39.8,10,39.5,10.7,38.9,11.2z"/>
	</g>
</g>
</svg>
