<svg xmlns="http://www.w3.org/2000/svg" viewBox="0 0 92.4 28" enable-background="new 0 0 92.4 28"><style type="text/css">.st0{fill:#00AEEF;} .st1{enable-background:new ;} .st2{fill:#525252;}</style><path id="Fill-1_6_" class="st0" d="M8 16.7c0-.9.3-4.1 5.5-6.7 5.1-2.5 5.7-4.6 5.7-4.6-.5 2.9-1.4 3.7-6.3 6.3-4.8 2.6-4.9 5-4.9 5z"/><path id="Fill-3_6_" class="st0" d="M8 22.1s.1-2.5 4.8-5c4.9-2.6 5.8-3.5 6.3-6.3 0 0-.5 2-5.7 4.6s-5.5 5.8-5.4 6.7"/><g id="Group-7_6_"><path id="Fill-5_6_" class="st0" d="M13.8 1.588c-6.9 0-12.5 5.6-12.5 12.4s5.6 12.4 12.4 12.4 12.4-5.6 12.4-12.4c.2-6.8-5.4-12.4-12.3-12.4m0 26.3c-7.6 0-13.8-6.2-13.8-13.9s6.2-13.8 13.8-13.8 13.8 6.2 13.8 13.8-6.1 13.9-13.8 13.9"/></g><g class="st1"><path d="M32.2 3.8h3.2v5h4.9v-5h3.2v12.3h-3.2v-4.7h-4.9v4.7h-3.2v-12.3zM46.9 3.8h9.7v2.6h-6.5v2.3h5.8v2.5h-5.8v2.3h6.6v2.6h-9.8v-12.3zM59.7 3.8h3.2v9.5h5.2v2.7h-8.4v-12.2zM70.5 3.8h3.2v12.3h-3.2v-12.3zM76.2 3.8h3.8l2.3 3.5 2.3-3.5h3.8l-4 5.9 4.4 6.4h-3.8l-2.6-3.8-2.6 3.8h-3.8l4.4-6.2-4.2-6.1z"/></g><g class="st1"><path class="st2" d="M33.1 23c.3.3.7.5 1.3.5.5 0 1-.2 1.3-.5.3-.3.5-.8.5-1.3v-3.2h.5v3.2c0 .7-.2 1.3-.6 1.7-.4.4-1 .6-1.7.6s-1.3-.2-1.7-.6c-.4-.4-.6-1-.6-1.7v-3.2h.5v3.2c.1.5.2.9.5 1.3zM41.3 18.4h.5v5h2.4v.5h-2.9v-5.5zM47.5 18.4h4.1v.5h-1.8v5h-.5v-5h-1.8v-.5zM55.6 18.4h.5v5.5h-.5v-5.5zM60.8 18.4h.7l2.1 4.1 2.1-4.1h.7v5.5h-.5v-4.7l-2.1 4.1h-.3l-2.1-4.1v4.7h-.5v-5.5zM75.2 23.9l-.6-1.5h-3l-.6 1.5h-.6l2.5-5.5h.6l2.5 5.5h-.8zm-3.4-2h2.6l-1.3-3-1.3 3zM78.4 18.4h4.1v.5h-1.8v5h-.5v-5h-1.8v-.5zM86.5 18.4h3.7v.5h-3.1v2h2.8v.5h-2.8v2.1h3.2v.5h-3.8v-5.6z"/></g></svg>