<?xml version="1.0" encoding="utf-8"?>
<svg   width="36px" height="36px"  version="1.1" id="Ebene_1" xmlns="http://www.w3.org/2000/svg" xmlns:xlink="http://www.w3.org/1999/xlink" x="0px" y="0px"
	 viewBox="0 0 36 36" style="enable-background:new 0 0 36 36;" xml:space="preserve">
<path d="M10.3,32.6c2.9-2.9,5.7-5.8,8.6-8.6c1.1-1.1-0.6-2.9-1.8-1.8c-2.9,2.9-5.8,5.8-8.6,8.6C7.4,31.9,9.2,33.7,10.3,32.6
	L10.3,32.6z"/>
<path d="M17.2,23.9c2.7,2.7,5.4,5.4,8.1,8.1c1.1,1.1,2.9-0.6,1.8-1.8c-2.7-2.7-5.4-5.4-8.1-8.1C17.8,21,16,22.8,17.2,23.9L17.2,23.9
	z"/>
<path d="M10.3,6.2C9.2,5,7.4,6.8,8.6,7.9c2.9,2.9,5.8,5.7,8.6,8.6c1.1,1.1,2.9-0.6,1.8-1.8C16.1,11.9,13.2,9.1,10.3,6.2L10.3,6.2z"
	/>
<path d="M17.2,14.8c-1.1,1.1,0.6,2.9,1.8,1.8c2.7-2.7,5.4-5.4,8.1-8.1c1.1-1.1-0.6-2.9-1.8-1.8C22.6,9.4,19.9,12.1,17.2,14.8
	L17.2,14.8z"/>
</svg>
