<?xml version="1.0" encoding="utf-8"?>
<svg  width="36px" height="36px"   xmlns="http://www.w3.org/2000/svg" xmlns:xlink="http://www.w3.org/1999/xlink" x="0px" y="0px"
	 viewBox="0 0 36 36" style="enable-background:new 0 0 36 36;" xml:space="preserve">
<path d="M25.3,22.2c-2.9,2.9-5.7,5.8-8.6,8.6c-1.1,1.1,0.6,2.9,1.8,1.8c2.9-2.9,5.8-5.8,8.6-8.6C28.2,22.8,26.4,21,25.3,22.2
	L25.3,22.2z"/>
<path d="M18.4,30.8c-2.7-2.7-5.4-5.4-8.1-8.1c-1.1-1.1-2.9,0.6-1.8,1.8c2.7,2.7,5.4,5.4,8.1,8.1C17.8,33.7,19.6,31.9,18.4,30.8
	L18.4,30.8z"/>
<path d="M10.3,16.6c2.9-2.9,5.8-5.8,8.6-8.6c1.1-1.1-0.6-2.9-1.8-1.8c-2.9,2.9-5.8,5.7-8.6,8.6C7.4,15.9,9.2,17.7,10.3,16.6
	L10.3,16.6z"/>
<path d="M17.2,7.9c2.7,2.7,5.4,5.4,8.1,8.1c1.1,1.1,2.9-0.6,1.8-1.8c-2.7-2.7-5.4-5.4-8.1-8.1C17.8,5,16,6.8,17.2,7.9L17.2,7.9z"/>
</svg>
