<?xml version="1.0" encoding="utf-8"?>
<!-- Generator: Adobe Illustrator 16.0.3, SVG Export Plug-In . SVG Version: 6.00 Build 0)  -->
<!DOCTYPE svg PUBLIC "-//W3C//DTD SVG 1.1//EN" "http://www.w3.org/Graphics/SVG/1.1/DTD/svg11.dtd">
<svg version="1.1" xmlns="http://www.w3.org/2000/svg" xmlns:xlink="http://www.w3.org/1999/xlink" x="0px" y="0px"
	 width="36px" height="36px" viewBox="0 0 36 36" enable-background="new 0 0 36 36" xml:space="preserve">
<path fill="#010202" d="M29.688,15.127L6.468,3.906C6.247,3.799,5.983,3.837,5.799,4c-0.184,0.164-0.25,0.422-0.169,0.654
	l8.798,25.256c0.084,0.242,0.313,0.406,0.569,0.408c0.256,0.003,0.487-0.158,0.576-0.398l2.633-7.201l5.369,5.563
	c0.17,0.176,0.42,0.228,0.637,0.151c0.076-0.026,0.148-0.067,0.211-0.126l3.418-3.121c0.121-0.11,0.193-0.266,0.197-0.43
	c0.006-0.164-0.055-0.323-0.17-0.441l-5.385-5.578l7.141-2.487c0.232-0.082,0.393-0.295,0.406-0.54
	C30.045,15.463,29.908,15.235,29.688,15.127z"/>
</svg>
