<?xml version="1.0" encoding="utf-8"?>
<!DOCTYPE svg PUBLIC "-//W3C//DTD SVG 1.1//EN" "http://www.w3.org/Graphics/SVG/1.1/DTD/svg11.dtd">
<svg version="1.1" xmlns="http://www.w3.org/2000/svg" xmlns:xlink="http://www.w3.org/1999/xlink" x="0px" y="0px"
	 width="36px" height="36px" viewBox="0 0 36 36" enable-background="new 0 0 36 36" xml:space="preserve">

	<polygon  points="18.125,4.026 18.125,13.93 11.276,8.723 	"/>

		<path d="M16.25,4.026c0,3.301,0,6.603,0,9.904c0.94-0.54,1.881-1.079,2.821-1.619c-2.283-1.735-4.566-3.471-6.849-5.207
			c0,1.08,0,2.159,0,3.238c2.283-1.566,4.566-3.132,6.849-4.697c1.98-1.358,0.107-4.61-1.893-3.238
			c-2.283,1.566-4.566,3.132-6.849,4.697c-1.248,0.856-1.148,2.366,0,3.238c2.283,1.735,4.566,3.471,6.849,5.207
			C18.353,16.442,20,15.221,20,13.93c0-3.301,0-6.603,0-9.904C20,1.607,16.25,1.607,16.25,4.026z"/>

			<path d="M27.266,19.396c-0.58,10.777-16.139,10.777-16.719,0c-0.173-3.207-5.174-3.224-5,0
				c0.407,7.557,5.803,12.954,13.36,13.361c7.541,0.406,12.985-6.417,13.359-13.361C32.439,16.173,27.438,16.19,27.266,19.396
				L27.266,19.396z"/>

				<path d="M32.266,19.838c-0.2-7.413-5.946-13.16-13.359-13.36c-3.226-0.087-3.218,4.913,0,5c4.657,0.125,8.233,3.703,8.359,8.36
					C27.353,23.056,32.353,23.064,32.266,19.838L32.266,19.838z"/>

</svg>
