<?xml version="1.0" encoding="utf-8"?>
<!DOCTYPE svg PUBLIC "-//W3C//DTD SVG 1.1//EN" "http://www.w3.org/Graphics/SVG/1.1/DTD/svg11.dtd">
<svg version="1.1" xmlns="http://www.w3.org/2000/svg" xmlns:xlink="http://www.w3.org/1999/xlink" x="0px" y="0px"
	 width="36px" height="36px" viewBox="0 0 36 36" enable-background="new 0 0 36 36" xml:space="preserve">

			<path d="M4.616,11.884c2.875,2.875,5.75,5.75,8.625,8.625c1.141,1.141,2.909-0.627,1.768-1.768
				c-2.875-2.875-5.75-5.75-8.625-8.625C5.243,8.975,3.475,10.743,4.616,11.884L4.616,11.884z"/>

			<path d="M13.241,18.741c-2.708,2.708-5.417,5.417-8.125,8.125c-1.141,1.141,0.627,2.908,1.768,1.768
				c2.708-2.708,5.417-5.417,8.125-8.125C16.15,19.368,14.382,17.6,13.241,18.741L13.241,18.741z"/>

			<path d="M33.009,26.866c-2.875-2.875-5.75-5.75-8.625-8.625c-1.141-1.141-2.908,0.627-1.768,1.768
				c2.875,2.875,5.75,5.75,8.625,8.625C32.382,29.774,34.149,28.007,33.009,26.866L33.009,26.866z"/>

			<path d="M24.384,20.009c2.708-2.708,5.417-5.417,8.125-8.125c1.141-1.141-0.627-2.909-1.768-1.768
				c-2.708,2.708-5.417,5.417-8.125,8.125C21.476,19.382,23.243,21.149,24.384,20.009L24.384,20.009z"/>

</svg>
