<?xml version="1.0" encoding="utf-8"?>
<!DOCTYPE svg PUBLIC "-//W3C//DTD SVG 1.1//EN" "http://www.w3.org/Graphics/SVG/1.1/DTD/svg11.dtd">
<svg version="1.1" xmlns="http://www.w3.org/2000/svg" xmlns:xlink="http://www.w3.org/1999/xlink" x="0px" y="0px"
	 width="36px" height="36px" viewBox="0 0 36 36" enable-background="new 0 0 36 36" xml:space="preserve">

	<path d="M8.686,22.772c-1.882-0.343-3.149-1.621-3.542-3.608
		c-0.302-1.527-0.141-2.975,0.777-4.281c1.201-1.712,3.315-2.5,5.34-1.991c2.003,0.504,3.484,2.174,3.737,4.24
		c0.149,1.222-0.029,2.397-0.61,3.491c-0.613,1.154-1.57,1.857-2.861,2.097c-0.037,0.007-0.075,0.016-0.188,0.041
		c0.362,0.063,0.65,0.104,0.935,0.164c0.643,0.136,1.229,0.402,1.763,0.784c2.067,1.479,3.069,3.495,3.018,6.035
		c-0.013,0.639-0.427,1.062-1.059,1.063c-3.974,0.003-7.947,0.002-11.921-0.002c-0.651-0.001-1.06-0.424-1.067-1.076
		c-0.019-1.608,0.333-3.116,1.337-4.399c0.876-1.119,1.924-2.037,3.357-2.385C8.024,22.866,8.357,22.828,8.686,22.772z"/>
	<path  d="M32.994,16.649c-0.08,3.764-1.508,7.325-4.397,10.284
		c-0.303,0.311-0.662,0.437-1.084,0.298c-0.386-0.126-0.619-0.4-0.687-0.802c-0.06-0.358,0.064-0.656,0.319-0.915
		c1.039-1.053,1.896-2.238,2.525-3.581c1.333-2.848,1.647-5.805,0.906-8.862c-0.571-2.354-1.733-4.384-3.428-6.113
		c-0.579-0.591-0.366-1.498,0.397-1.721c0.423-0.124,0.774,0.014,1.078,0.324c1.09,1.112,1.994,2.357,2.705,3.743
		C32.456,11.498,32.982,13.834,32.994,16.649z"/>
	<path d="M26.667,16.078c-0.053,2.567-0.881,4.639-2.549,6.365
		c-0.43,0.444-1.063,0.474-1.481,0.074c-0.421-0.4-0.412-1.022,0.016-1.48c1.854-1.989,2.402-4.296,1.636-6.9
		c-0.305-1.036-0.868-1.933-1.635-2.697c-0.302-0.302-0.403-0.661-0.267-1.068c0.133-0.396,0.422-0.625,0.832-0.687
		c0.34-0.051,0.63,0.067,0.868,0.311c1.325,1.355,2.155,2.965,2.453,4.839C26.614,15.302,26.638,15.777,26.667,16.078z"/>
	<path d="M21.672,16.229c-0.021,1.323-0.48,2.454-1.415,3.381
		c-0.351,0.348-0.883,0.375-1.285,0.097c-0.383-0.264-0.536-0.787-0.345-1.221c0.055-0.123,0.141-0.238,0.232-0.338
		c1.04-1.133,1.041-2.672,0-3.814c-0.339-0.371-0.408-0.846-0.183-1.238c0.221-0.384,0.667-0.599,1.105-0.476
		c0.205,0.058,0.413,0.188,0.562,0.342C21.227,13.872,21.647,14.977,21.672,16.229z"/>

</svg>
