<?xml version="1.0" encoding="utf-8"?>
<!DOCTYPE svg PUBLIC "-//W3C//DTD SVG 1.1//EN" "http://www.w3.org/Graphics/SVG/1.1/DTD/svg11.dtd">
<svg version="1.1"  xmlns="http://www.w3.org/2000/svg" xmlns:xlink="http://www.w3.org/1999/xlink" x="0px" y="0px"
	 width="36px" height="36px" viewBox="0 0 36 36" enable-background="new 0 0 36 36" xml:space="preserve">

	<path d="M15.671,10.188v16.056h2.763c0.987,0,1.691,0.19,2.112,0.571c0.42,0.379,0.63,0.877,0.63,1.49
		c0,0.602-0.21,1.092-0.63,1.473c-0.421,0.379-1.125,0.57-2.112,0.57H8.824c-0.988,0-1.691-0.191-2.112-0.57
		c-0.42-0.381-0.63-0.878-0.63-1.492c0-0.601,0.21-1.092,0.63-1.471c0.421-0.381,1.124-0.571,2.112-0.571h2.742V10.188H7.123v3.884
		c0,0.988-0.19,1.692-0.571,2.112c-0.38,0.421-0.877,0.631-1.491,0.631c-0.601,0-1.091-0.21-1.472-0.631
		c-0.38-0.42-0.57-1.124-0.57-2.112V6.063l21.261,0.02v7.988c0,0.988-0.19,1.692-0.57,2.112c-0.381,0.421-0.878,0.631-1.492,0.631
		c-0.6,0-1.091-0.21-1.471-0.631c-0.381-0.42-0.57-1.124-0.57-2.112v-3.884H15.671z"/>

	<path stroke="#000000" stroke-miterlimit="10" d="M29.601,24.063v4.02c0,0.578-0.109,0.99-0.328,1.236s-0.508,0.369-0.867,0.369
		s-0.65-0.123-0.873-0.369s-0.334-0.658-0.334-1.236v-4.02h-3.434c-0.578,0-0.99-0.111-1.236-0.334s-0.369-0.514-0.369-0.873
		s0.123-0.65,0.369-0.873s0.658-0.33,1.236-0.322h3.434v-4.007c0-0.57,0.111-0.98,0.334-1.23s0.514-0.375,0.873-0.375
		s0.65,0.123,0.873,0.369s0.334,0.658,0.334,1.236l-0.012,4.007h3.434c0.578,0,0.99,0.109,1.236,0.328s0.369,0.508,0.369,0.867
		s-0.123,0.65-0.369,0.873s-0.658,0.334-1.236,0.334H29.601z"/>
</svg>
