<?xml version="1.0" encoding="utf-8"?>
<!DOCTYPE svg PUBLIC "-//W3C//DTD SVG 1.1//EN" "http://www.w3.org/Graphics/SVG/1.1/DTD/svg11.dtd">
<svg version="1.1"  xmlns="http://www.w3.org/2000/svg" xmlns:xlink="http://www.w3.org/1999/xlink" x="0px" y="0px"
	 width="36px" height="36px" viewBox="0 0 36 36" enable-background="new 0 0 36 36" xml:space="preserve">

	<path d="M15.671,10.188v16.056h2.763c0.987,0,1.691,0.189,2.112,0.57c0.42,0.379,0.63,0.877,0.63,1.49
		c0,0.602-0.21,1.092-0.63,1.473c-0.421,0.379-1.125,0.57-2.112,0.57h-9.61c-0.988,0-1.691-0.191-2.112-0.57
		c-0.42-0.381-0.63-0.877-0.63-1.491c0-0.601,0.21-1.093,0.63-1.472c0.421-0.381,1.124-0.57,2.112-0.57h2.742V10.188H7.123v3.884
		c0,0.988-0.19,1.692-0.571,2.112c-0.38,0.421-0.877,0.631-1.491,0.631c-0.601,0-1.091-0.21-1.472-0.631
		c-0.38-0.42-0.57-1.124-0.57-2.112V6.063l21.26,0.02v7.988c0,0.988-0.189,1.692-0.569,2.112c-0.381,0.421-0.878,0.631-1.492,0.631
		c-0.6,0-1.091-0.21-1.471-0.631c-0.381-0.42-0.569-1.124-0.569-2.112v-3.884L15.671,10.188L15.671,10.188z"/>

	<line fill="none" x1="22.159" y1="22.855" x2="33.833" y2="22.855"/>

		<path d="M22.666,23.376c3.057,0,6.111,0,9.167,0c2.418,0,2.418-3.75,0-3.75c-3.056,0-6.11,0-9.167,0
			C20.248,19.626,20.248,23.376,22.666,23.376L22.666,23.376z"/>

</svg>
