<?xml version="1.0" encoding="utf-8"?>
<!DOCTYPE svg PUBLIC "-//W3C//DTD SVG 1.1//EN" "http://www.w3.org/Graphics/SVG/1.1/DTD/svg11.dtd">
<svg version="1.1" xmlns="http://www.w3.org/2000/svg" xmlns:xlink="http://www.w3.org/1999/xlink" x="0px" y="0px"
	 width="36px" height="36px" viewBox="0 0 36 36" enable-background="new 0 0 36 36" xml:space="preserve">

		<path d="M4.5,30.438c9.167,0,18.333,0,27.5,0c2.418,0,2.418-3.75,0-3.75c-9.166,0-18.333,0-27.5,0
			C2.082,26.688,2.082,30.438,4.5,30.438L4.5,30.438z"/>

	<path d="M25.55,7.44v9.362c0,2.041-0.734,3.776-2.201,5.205c-1.465,1.429-3.23,2.144-5.293,2.144c-1.02,0-1.979-0.181-2.875-0.541
		c-0.898-0.359-1.703-0.889-2.418-1.586c-0.714-0.699-1.27-1.426-1.667-2.184s-0.596-1.77-0.596-3.038V7.44
		c-0.698,0-1.214-0.156-1.547-0.467s-0.5-0.709-0.5-1.192c0-0.494,0.167-0.892,0.5-1.192s0.902-0.451,1.708-0.451l4.335-0.016
		c0.795,0,1.361,0.153,1.699,0.459c0.338,0.306,0.508,0.706,0.508,1.2s-0.17,0.895-0.508,1.2C16.356,7.288,15.79,7.44,14.995,7.44
		h-1.193v9.652c0,0.988,0.412,1.861,1.232,2.619c0.822,0.758,1.814,1.136,2.975,1.136c0.773,0,1.498-0.183,2.174-0.548
		c0.678-0.365,1.23-0.896,1.66-1.595c0.268-0.44,0.402-0.978,0.402-1.611V7.44h-1.191c-0.795,0-1.361-0.153-1.701-0.459
		c-0.338-0.306-0.506-0.706-0.506-1.2s0.168-0.895,0.506-1.2c0.34-0.307,0.906-0.459,1.701-0.459l4.334,0.016
		c0.795,0,1.361,0.15,1.699,0.451c0.34,0.301,0.508,0.698,0.508,1.192c0,0.483-0.166,0.881-0.498,1.192
		C26.763,7.285,26.247,7.44,25.55,7.44z"/>

</svg>
