<?xml version="1.0" encoding="UTF-8" standalone="no"?>
<!DOCTYPE svg PUBLIC "-//W3C//DTD SVG 1.1//EN" "http://www.w3.org/Graphics/SVG/1.1/DTD/svg11.dtd">
<svg width="100%" height="100%" viewBox="0 0 1167 292" version="1.1" xmlns="http://www.w3.org/2000/svg" xmlns:xlink="http://www.w3.org/1999/xlink" xml:space="preserve" xmlns:serif="http://www.serif.com/" style=""><path id="path1067" d="M340.154,190.249l-38.743,0l-0,-124.029l36.718,0c6.179,0 11.15,0.232 14.916,0.688c9.124,1.347 16.133,4.629 21.021,9.839c4.886,5.206 7.33,12.11 7.33,20.722c0,13.049 -6.229,21.852 -18.691,26.409c15.192,4.045 22.79,13.933 22.79,29.677c-0,5.446 -0.857,10.364 -2.569,14.751c-1.724,4.388 -4.047,7.984 -6.976,10.788c-2.922,2.815 -6.117,5.071 -9.59,6.764c-3.457,1.702 -7.145,2.878 -11.07,3.521c-3.752,0.583 -8.797,0.87 -15.136,0.87Zm-20.628,-56.437l0,40.63l22.398,-0c3.763,-0 6.363,-0.056 7.806,-0.166c4.883,-0.473 8.876,-2.447 11.969,-5.934c3.084,-3.482 4.629,-8.116 4.629,-13.899c0,-11.998 -5.584,-18.701 -16.754,-20.109c-2.2,-0.346 -5.072,-0.522 -8.623,-0.522l-21.425,0Zm0,-51.964l0,36.674l19.812,-0c3.061,-0 5.906,-0.225 8.539,-0.683c9.567,-1.643 14.352,-7.702 14.352,-18.185c0,-5.261 -1.383,-9.326 -4.149,-12.194c-2.766,-2.865 -6.542,-4.563 -11.328,-5.095c-2.629,-0.348 -5.505,-0.517 -8.623,-0.517l-18.603,-0Zm76.615,60.918c0,-15.048 3.984,-27.223 11.956,-36.529c7.972,-9.306 18.295,-13.959 30.969,-13.959c8.221,0 15.321,2.141 21.311,6.416c5.984,4.272 10.442,9.964 13.366,17.07c2.922,7.114 4.39,15.239 4.39,24.369c-0,2.98 -0.111,5.612 -0.324,7.899l-62.824,0c1.281,20.249 8.935,30.374 22.956,30.374c5.367,0 9.913,-1.698 13.642,-5.095c3.74,-3.397 6.064,-8.05 6.973,-13.959l18.281,0c-1.826,10.889 -6.359,19.185 -13.606,24.893c-7.253,5.698 -15.931,8.547 -26.018,8.547c-12.246,0 -22.155,-4.272 -29.73,-12.808c-7.561,-8.552 -11.342,-20.958 -11.342,-37.218Zm18.995,-8.617l44.387,0c-0.645,-8.884 -2.752,-15.688 -6.325,-20.406c-3.569,-4.708 -8.498,-7.064 -14.778,-7.064c-6.339,-0 -11.558,2.332 -15.662,6.989c-4.108,4.648 -6.643,11.472 -7.622,20.481Zm74.679,31.082c0,-21.772 16.216,-32.66 48.657,-32.66l5.542,-0l-0,-2.372c-0,-4.557 -0.107,-8.034 -0.323,-10.431c-0.531,-8.728 -5.63,-13.089 -15.29,-13.089c-10.318,-0 -15.985,6.12 -17.003,18.35l-18.116,0c0.536,-10.306 4.039,-18.335 10.513,-24.094c6.459,-5.773 14.772,-8.657 24.93,-8.657c10.839,0 18.866,2.302 24.081,6.894c5.205,4.598 8.184,11.165 8.931,19.702c0.327,3.98 0.494,8.491 0.494,13.531l-0,33.62c-0,7.317 0.539,15.391 1.613,24.224l-17.977,0l-1.595,-13.862l-4.523,10.27c-5.478,4.09 -12.726,6.135 -21.739,6.135c-8.115,0 -14.846,-2.443 -20.186,-7.322c-5.339,-4.894 -8.009,-11.642 -8.009,-20.239Zm19.079,-1.578c0,4.919 1.383,8.608 4.15,11.065c2.766,2.462 6.625,3.688 11.567,3.688c5.792,0 10.476,-2.106 14.045,-6.321c3.573,-4.21 5.358,-10.095 5.358,-17.642l-0,-8.783c-2.675,-0.236 -5.225,-0.356 -7.654,-0.356c-4.08,0 -7.732,0.322 -10.951,0.965c-5.145,0.999 -9.189,2.958 -12.125,5.878c-2.924,2.924 -4.39,6.764 -4.39,11.506Zm94.578,26.596l-18.217,0l0,-95.413l18.217,-0l0,16.144l7.414,-13.159c4.126,-3.568 8.636,-5.357 13.518,-5.357c2.205,-0 4.215,0.352 6.041,1.056l0,15.441c-0.964,-0.061 -1.877,-0.092 -2.739,-0.092c-7.303,0.061 -13.044,2.377 -17.23,6.95c-4.726,5.14 -7.064,13.415 -7.004,24.836l0,49.594Zm32.381,-28.615l18.281,-0c1.019,5.859 3.181,10.175 6.483,12.953c3.31,2.783 7.377,4.17 12.209,4.17c4.398,0 8.023,-1.039 10.867,-3.13c2.845,-2.074 4.269,-5.105 4.269,-9.08c0,-4.089 -1.581,-7.426 -4.744,-10.008c-3.177,-2.573 -8.52,-4.94 -16.04,-7.101c-4.297,-1.175 -8.027,-2.521 -11.191,-4.039c-3.171,-1.523 -6.058,-3.392 -8.654,-5.617c-2.609,-2.221 -4.596,-4.929 -5.97,-8.115c-1.375,-3.201 -2.057,-6.819 -2.057,-10.844c-0,-8.848 2.942,-15.818 8.825,-20.908c5.883,-5.09 13.736,-7.637 23.556,-7.637c9.774,0 17.511,2.708 23.215,8.12c5.689,5.412 9.046,12.657 10.064,21.742l-18.452,-0c-0.963,-5.155 -2.798,-9.109 -5.51,-11.864c-2.719,-2.743 -6.279,-4.115 -10.677,-4.115c-4.14,0 -7.299,1.126 -9.475,3.372c-2.168,2.251 -3.246,5.245 -3.246,8.989c-0,4.106 1.499,7.295 4.505,9.583c3.006,2.275 7.999,4.405 14.984,6.395c9.987,2.82 17.359,6.568 22.108,11.25c4.749,4.684 7.128,11.12 7.128,19.311c-0,8.898 -3.181,15.741 -9.543,20.535c-6.359,4.798 -14.561,7.196 -24.608,7.196c-10.148,0 -18.447,-2.593 -24.897,-7.768c-6.442,-5.176 -10.249,-12.974 -11.43,-23.39Zm80.461,3.597c-0,-21.772 16.215,-32.66 48.655,-32.66l5.561,-0l-0,-2.372c-0,-4.557 -0.107,-8.034 -0.323,-10.431c-0.534,-8.728 -5.634,-13.089 -15.307,-13.089c-10.306,-0 -15.966,6.12 -16.991,18.35l-18.129,0c0.535,-10.306 4.04,-18.335 10.512,-24.094c6.475,-5.773 14.783,-8.657 24.93,-8.657c10.854,0 18.881,2.302 24.082,6.894c5.22,4.598 8.198,11.165 8.949,19.702c0.313,3.98 0.475,8.491 0.475,13.531l-0,33.62c-0,7.317 0.539,15.391 1.613,24.224l-17.958,0l-1.614,-13.862l-4.509,10.27c-5.477,4.09 -12.725,6.135 -21.753,6.135c-8.105,0 -14.827,-2.443 -20.167,-7.322c-5.353,-4.894 -8.026,-11.642 -8.026,-20.239Zm19.096,-1.578c0,4.919 1.384,8.608 4.15,11.065c2.767,2.462 6.621,3.688 11.564,3.688c5.795,0 10.48,-2.106 14.048,-6.321c3.573,-4.21 5.358,-10.095 5.358,-17.642l-0,-8.783c-2.688,-0.236 -5.237,-0.356 -7.654,-0.356c-4.08,0 -7.732,0.322 -10.951,0.965c-5.159,0.999 -9.201,2.958 -12.125,5.878c-2.927,2.924 -4.39,6.764 -4.39,11.506Zm94.56,26.596l-18.197,0l-0,-95.413l18.197,-0l-0,14.125l5.884,-11.14c4.297,-3.694 10.526,-5.543 18.691,-5.543c6.713,0 12.269,1.638 16.668,4.914c4.407,3.287 7.469,7.708 9.179,13.271l8.148,-12.642c4.458,-3.694 10.659,-5.543 18.608,-5.543c7.787,0 14.03,2.17 18.723,6.508c4.694,4.325 7.58,9.938 8.655,16.846c0.535,4.041 0.802,9.688 0.802,16.939l-0,57.678l-18.115,0l0,-50.467c0,-7.267 -0.212,-13.029 -0.645,-17.291c-0.531,-5.104 -2.209,-8.983 -5.035,-11.642c-2.823,-2.668 -6.599,-3.999 -11.325,-3.999c-11.757,-0 -17.635,11.793 -17.635,35.378l0,48.021l-17.963,0l-0,-50.467c-0,-6.734 -0.24,-12.497 -0.728,-17.291c-1.282,-10.431 -6.7,-15.641 -16.257,-15.641c-11.771,-0 -17.655,11.793 -17.655,35.378l-0,48.021Zm145.646,35.197l-18.213,0l0,-130.61l18.213,-0l-0,14.828l6.598,-10.176c2.416,-2.22 5.703,-3.984 9.866,-5.28c4.16,-1.286 8.497,-1.93 13.007,-1.93c8.166,0 15.257,2.125 21.278,6.377c6.008,4.24 10.545,10.003 13.606,17.294c3.062,7.277 4.592,15.567 4.592,24.872c0,8.487 -1.139,16.1 -3.42,22.832c-2.288,6.734 -5.408,12.19 -9.351,16.366c-3.947,4.191 -8.443,7.366 -13.491,9.526c-5.043,2.161 -10.439,3.247 -16.188,3.247c-3.808,0 -7.685,-0.538 -11.632,-1.613c-3.957,-1.091 -7.009,-2.543 -9.152,-4.357l-5.713,-9.471l-0,48.095Zm-0,-83.921l-0,4.839c-0,5.557 0.723,10.486 2.176,14.787c1.439,4.302 3.357,7.647 5.75,10.045c2.392,2.396 4.984,4.205 7.773,5.412c2.799,1.2 5.704,1.798 8.705,1.798c7.52,0 13.625,-3.1 18.318,-9.3c4.703,-6.217 7.059,-15.059 7.059,-26.526c0,-10.653 -2.167,-19.295 -6.496,-25.928c-4.32,-6.647 -10.347,-9.973 -18.079,-9.973c-3.541,-0 -6.778,0.633 -9.714,1.894c-2.924,1.256 -5.566,3.216 -7.926,5.874c-2.366,2.669 -4.223,6.296 -5.561,10.878c-1.337,4.599 -2.005,9.995 -2.005,16.2Zm103.264,83.921l-18.211,0l-0,-130.61l18.211,-0l0,14.828l6.603,-10.176c2.411,-2.22 5.699,-3.984 9.863,-5.28c4.158,-1.286 8.497,-1.93 13.01,-1.93c8.161,0 15.253,2.125 21.273,6.377c6.008,4.24 10.545,10.003 13.607,17.294c3.061,7.277 4.592,15.567 4.592,24.872c-0,8.487 -1.138,16.1 -3.416,22.832c-2.292,6.734 -5.408,12.19 -9.355,16.366c-3.947,4.191 -8.442,7.366 -13.487,9.526c-5.048,2.161 -10.442,3.247 -16.192,3.247c-3.808,0 -7.691,-0.538 -11.652,-1.613c-3.941,-1.091 -6.988,-2.543 -9.128,-4.357l-5.718,-9.471l0,48.095Zm0,-83.921l0,4.839c0,5.557 0.728,10.486 2.177,14.787c1.443,4.302 3.357,7.647 5.749,10.045c2.394,2.396 4.985,4.205 7.774,5.412c2.789,1.2 5.689,1.798 8.705,1.798c7.519,0 13.624,-3.1 18.318,-9.3c4.707,-6.217 7.059,-15.059 7.059,-26.526c-0,-10.653 -2.168,-19.295 -6.497,-25.928c-4.32,-6.647 -10.345,-9.973 -18.078,-9.973c-3.55,-0 -6.787,0.633 -9.71,1.894c-2.928,1.256 -5.57,3.216 -7.926,5.874c-2.369,2.669 -4.223,6.296 -5.561,10.878c-1.341,4.599 -2.01,9.995 -2.01,16.2Z" style=""/><g id="Page-1" serif:id="Page 1"><g><path id="path1063" d="M76.308,131.244l-23.071,15.217l23.071,15.214l-0,37.791l26.493,0l0,-12.972l-13.524,-0l0,-31.801l-12.482,-8.232l12.482,-8.235l0,-31.801l13.524,-0l0,-12.972l-26.493,-0l-0,37.791" style=""/><path id="path1065" d="M223.166,131.244l0,-37.791l-26.493,-0l-0,12.972l13.523,-0l0,31.801l12.482,8.235l-12.482,8.232l0,31.801l-13.523,-0l-0,12.972l26.493,0l0,-37.791l23.071,-15.214l-23.071,-15.217" style=""/><path id="path1069" d="M150.726,182.989l-23.024,0l0,-67.641l21.821,-0c3.675,-0 6.629,0.126 8.865,0.375c5.426,0.734 9.591,2.521 12.493,5.366c2.905,2.836 4.357,6.604 4.357,11.3c0,7.117 -3.702,11.918 -11.109,14.403c9.032,2.204 13.545,7.599 13.545,16.185c0,2.97 -0.509,5.653 -1.526,8.045c-1.025,2.392 -2.406,4.354 -4.144,5.884c-1.739,1.534 -3.638,2.764 -5.702,3.688c-2.055,0.929 -4.247,1.57 -6.58,1.921c-2.23,0.318 -5.228,0.474 -8.996,0.474Zm-12.26,-30.779l0,22.158l13.312,0c2.237,0 3.785,-0.03 4.639,-0.09c2.905,-0.258 5.276,-1.335 7.117,-3.236c1.833,-1.899 2.749,-4.426 2.749,-7.58c-0,-6.544 -3.319,-10.2 -9.955,-10.967c-1.308,-0.189 -3.018,-0.285 -5.125,-0.285l-12.737,0Zm0,-28.34l0,20.001l11.775,0c1.819,0 3.511,-0.123 5.075,-0.372c5.687,-0.896 8.531,-4.201 8.531,-9.918c-0,-2.869 -0.823,-5.086 -2.466,-6.65c-1.645,-1.562 -3.889,-2.488 -6.733,-2.779c-1.563,-0.189 -3.27,-0.282 -5.125,-0.282l-11.057,-0Z" style=""/><path id="path1061" d="M204.326,28.898c-4.244,-1.959 -8.6,-3.718 -13.087,-5.217c-12.959,-4.382 -26.825,-6.751 -41.25,-6.751c-14.57,-0 -28.566,2.424 -41.637,6.882c-4.468,1.516 -8.824,3.275 -13.051,5.272c-43.953,20.572 -74.468,65.173 -74.468,116.749c0,51.632 30.57,96.271 74.599,116.824c4.244,1.977 8.6,3.736 13.088,5.252c13.014,4.423 26.972,6.828 41.469,6.828c14.352,-0 28.179,-2.35 41.082,-6.697c4.488,-1.499 8.863,-3.239 13.107,-5.217c44.252,-20.478 74.989,-65.211 74.989,-116.99c-0,-51.724 -30.682,-96.418 -74.841,-116.935Zm-54.337,0.982c10.697,-0 21.062,1.442 30.887,4.161l-31.145,31.153l-31.033,-31.041c9.955,-2.793 20.449,-4.273 31.291,-4.273Zm-0,231.907c-10.768,-0 -21.207,-1.481 -31.126,-4.238l30.868,-30.874l30.978,30.986c-9.789,2.701 -20.078,4.126 -30.72,4.126Zm44.384,-8.787l-44.642,-44.659l-44.492,44.511c-41.917,-17.538 -71.43,-58.903 -71.43,-107.019c-0,-48.061 29.44,-89.388 71.282,-106.944l0.018,-0l44.622,44.639l44.77,-44.807c42.064,17.465 71.69,58.903 71.69,107.112c0,48.264 -29.7,89.738 -71.818,107.167" style=""/></g></g></svg>
