<svg xmlns="http://www.w3.org/2000/svg" width="524.67004" height="341.1911" viewBox="0 0 524.67004 341.1911" xmlns:xlink="http://www.w3.org/1999/xlink"><g><polygon points="146.06359 297.4971 116.44513 300.71649 102.27977 291.0583 94.07919 300.71649 98.01545 321.09568 102.52261 337.19268 129.85255 323.31261 151.85851 321.32064 146.06359 297.4971" fill="#a0616a"/><polygon points="296.08756 263.37147 224.61691 262.08371 137.69316 298.78486 149.28299 323.89616 227.83631 302.00425 349.52957 336.77376 332.7887 254.35716 296.08756 263.37147" fill="#2f2e41"/><path d="M100.05315,299.84438l14.20534-1.10577-18.06862-38.17089s-8.37044-2.95576-9.6582,6.24867c-1.28776,9.20444,9.69613,71.52732,12.91553,71.52732s14.02135-6.30207,14.02135-6.30207l-15.99093-30.26562,2.57552-1.93164Z" fill="#2f2e41"/><path d="M456.34935,289.39263c-1.42985,.15385-2.98968,.38475-4.64888,.7226-7.03516,1.43253-7.18118,6.20958-7.11952,7.30476l-.04779-.02979c-.70739,1.13476-1.15044,2.28315-1.4182,3.36701l-.32217-14.641c.20832-.43435,.39786-.92685,.55589-1.43166,.52662,1.62169,1.38987,3.15377,2.13401,3.05222,.96762-.13204,1.38947-2.97916,1.20897-5.00246,1.23047,1.58465,3.3013,3.27941,4.08251,2.75683,.62425-.41758,.2541-2.13672-.42743-3.69964,1.42006,.85554,2.99281,1.41784,3.48085,.87458,.66598-.74133-.92984-3.27086-2.40155-4.68289,1.96997,.18371,4.47543-.13015,4.63969-1.02673,.13534-.73873-1.35579-1.67091-2.95181-2.27086,1.60308-.42268,3.10217-1.15918,3.05245-1.88777-.05906-.86552-2.28467-1.44545-4.20471-1.5337,1.44822-1.133,2.77888-2.69922,2.37195-3.40757-.37411-.65121-2.11446-.39896-3.72016,.17459,.95023-1.35853,1.61828-2.88935,1.10951-3.41324-.63377-.65259-2.88309,.47378-4.41816,1.71883,.29883-1.93967,.14776-4.38803-.72222-4.60955-.72781-.18532-1.75932,1.23892-2.46653,2.79039-.31256-1.62815-.94532-3.17389-1.6756-3.17389-1.04032,0-1.88367,3.13659-1.88367,5.18009,0,.11551,.00306,.22425,.00834,.32814-.10442-.12106-.22408-.24752-.36055-.38006-1.46596-1.42367-4.30362-3.00389-5.0284-2.2576-.50877,.52389,.15928,2.05471,1.10951,3.41324-1.60569-.57355-3.34604-.8258-3.72016-.17459-.50268,.87502,1.64602,3.05935,3.39258,4.11864-.10499-.01265-.2153-.0233-.33269-.0313-2.03875-.13911-5.22547,.48876-5.2963,1.52667-.04972,.72859,1.44937,1.46509,3.05245,1.88777-1.59602,.59995-3.08716,1.53213-2.95181,2.27086,.16426,.89658,2.66972,1.21044,4.63969,1.02673-1.47171,1.41203-3.06753,3.94156-2.40155,4.68289,.48804,.54326,2.06079-.01904,3.48085-.87458-.68153,1.56293-1.05168,3.28206-.42743,3.69964,.82497,.55185,3.08748-1.36882,4.28036-3.02147-.12155,2.02184,.36223,4.79945,1.32213,4.90907,.40143,.04584,.82679-.38227,1.21068-1.04145l-1.08725,15.73732c-.25415,1.83274,1.37152,3.02868,1.51681,3.78361l.23451,10.65706c-.26466-.75902-.62115-1.53582-1.10169-2.30668l-.04779,.02981c.06165-1.0953-.08448-5.8722-7.11952-7.30471-1.65921-.33786-3.21904-.56876-4.64888-.7226-1.68779-.1816-2.34616,2.12881-.82144,2.87505,2.20812,1.08074,4.28525,2.4424,5.3679,4.05488,2.76793,4.12253,6.59242,1.73948,7.13618,1.36949,.60735,1.01105,1.0056,2.02964,1.25714,2.99883l.12454,5.65955c-.03051,.13385-.05163,.2088-.05327,.21443l.05836,.01711,.30139,13.69664,2.79578-.02246-1-14c.16804-.75523,.68502-3.32804,0-6l-1-11h0c-.00249-.00849,.05676,.28879,0,0l-1.30444-4.32222c.18968-1.33717,.6299-2.8412,1.52394-4.32943,.54375,.36998,4.36824,2.75305,7.13618-1.36949,1.08265-1.61249,3.15978-2.97414,5.3679-4.05488,1.52471-.74625,.86635-3.05665-.82144-2.87505Zm-12.77139,32.40569l-.05271-2.39528c.1063,.90567,.10092,1.72315,.05271,2.39528Z" fill="#f2f2f2"/><path d="M0,337.10725c0,.66003,.53003,1.19,1.19006,1.19H523.48004c.65997,0,1.19-.52997,1.19-1.19,0-.65997-.53003-1.19-1.19-1.19H1.19006c-.66003,0-1.19006,.53003-1.19006,1.19Z" fill="#3f3d56"/><polygon points="346.55301 177.51051 353.63569 153.68697 374.23984 153.04309 382.61027 182.66155 346.55301 177.51051" fill="#a0616a"/><polygon points="346.55301 177.51051 353.63569 153.68697 374.23984 153.04309 382.61027 182.66155 346.55301 177.51051" opacity=".1"/><path d="M378.18222,174.19414l-33.48174-1.28776-10.38118,21.34501-16.01789,94.55333,84.0263,18.99445s5.15104-105.59627-6.4388-120.4055c-11.58983-14.80923-17.70669-13.19953-17.70669-13.19953Z" fill="#e6e6e6"/><g><path id="uuid-eba3c791-903e-49f6-a366-4071661c4004-38" d="M280.12267,100.1487c-1.39568-7.45355-6.37282-12.77514-11.11617-11.88614-4.74334,.889-7.45592,7.65118-6.05874,15.1072,.51726,2.98603,1.74209,5.80477,3.57204,8.22038l6.31237,31.50633,12.45274-2.52798-5.51675-31.46108c.83195-2.91508,.95352-5.98704,.35452-8.95871Z" fill="#a0616a"/><polygon points="373.16722 182.77419 304.78848 169.29907 285.57206 111.50288 264.03893 116.59647 285.64079 201.97654 363.04164 212.16091 373.16722 182.77419" fill="#e6e6e6"/></g><path d="M269.02788,7.56667h0c-.06705,.06518-.1289,.13375-.19522,.19947-10.35472-10.27524-27.03092-10.36564-37.49647-.20335h0c-10.50278,10.20236-10.8577,26.95071-.79654,37.58887l-.00655,.00637,.25052,.25797h0l37.05013,38.14774,38.40578-37.3007-.10683-.10992c.06451-.06148,.13168-.11847,.19571-.18079h0c10.60548-10.30028,10.85284-27.24767,.55257-37.85315h0c-10.30028-10.60542-27.24773-10.85278-37.85309-.55251Z" fill="#6c63ff"/><path d="M278.19124,196.76557h0c-.1235,.12004-.2374,.24633-.35956,.36737-19.07095-18.92456-49.78457-19.09105-69.05964-.37452h0c-19.34363,18.79034-19.99731,49.63684-1.46703,69.22981l-.01206,.01172,.46139,.47513h0l68.23757,70.25912,70.73436-68.69908-.19675-.20245c.11881-.11323,.24253-.21819,.36045-.33298h0c19.53279-18.97068,19.98837-50.18376,1.0177-69.71655h0c-18.97068-19.53268-50.18388-19.98826-69.71644-1.01759Z" fill="#6c63ff"/><path d="M398.46443,296.20934s12.87759,30.26235-1.28776,37.34502c-14.16535,7.08268-52.96544,12.87759-62.53998,0-9.57454-12.87759-12.79394-72.11452-12.79394-72.11452l-30.90622,43.13994-17.38475-10.94595s20.60415-72.7584,37.9889-76.62168c17.38475-3.86328,63.74409,42.49606,63.74409,42.49606l23.17967,36.70114Z" fill="#2f2e41"/><polygon points="281.27832 289.77054 267.75685 303.29201 249.08434 312.95021 251.01598 329.69108 286.42936 325.8278 290.93652 316.81349 289.64876 309.08693 292.22428 296.85322 281.27832 289.77054" fill="#a0616a"/><path d="M253.5915,323.25228l-1.10577-14.20534-38.17089,18.06862s-2.95576,8.37044,6.24867,9.6582c9.20444,1.28776,70.37301,1.28776,70.37301-1.93164s1.67307-19.7017,1.67307-19.7017l-37.08646,10.68739-1.93164-2.57552Z" fill="#2f2e41"/><g><path id="uuid-15f9be4a-b940-43a3-b95c-54b4380058a1-39" d="M281.73057,274.90502c-7.54609,.7483-13.2767,5.24844-12.79969,10.05074,.47701,4.8023,6.98034,8.0874,14.52902,7.33782,3.01949-.25807,5.93328-1.23549,8.49757-2.85051l31.93303-3.57437-1.44568-12.62424-31.8194,2.78561c-2.83256-1.08001-5.88262-1.46581-8.89486-1.12506Z" fill="#a0616a"/><polygon points="372.06536 189.32531 352.74897 256.2888 293.51204 270.45415 296.73144 292.34606 383.65519 278.18071 400.4704 201.94514 372.06536 189.32531" fill="#e6e6e6"/></g></g><g><circle cx="361.32007" cy="133.45526" r="27.363" fill="#a0616a"/><path d="M363.50388,96.66762c-.79178,.46219-1.85234-.23709-2.10622-1.11804-.25388-.88095,.04186-1.81629,.33513-2.68492,.49212-1.45761,.98425-2.91521,1.47637-4.37282,1.04708-3.1013,2.15838-6.31098,4.42609-8.67147,3.42275-3.56279,8.8623-4.46914,13.75898-3.81252,6.2883,.84323,12.4927,4.24828,15.41658,9.87898,2.92388,5.6307,1.67907,13.48753-3.60418,17.00052,7.52979,8.6304,10.15456,18.24868,9.74012,29.69463-.41444,11.44595-12.88772,21.97996-21.02197,30.04318-1.81653-1.10115-3.46795-6.26162-2.46903-8.13631,.99892-1.87469-.43231-4.04657,.80482-5.77336,1.23713-1.72679,2.27215,1.02277,1.02144-.69421-.78922-1.08345,2.29108-3.57598,1.11796-4.22445-5.67421-3.13651-7.56141-10.20916-11.12518-15.62524-4.29857-6.53279-11.65556-10.95686-19.44122-11.69082-4.28884-.40431-8.81881,.32798-12.33421,2.81788-3.5154,2.4899-5.79125,6.93931-4.97607,11.16934-2.1112-2.14364-3.16211-5.28515-2.76573-8.26763,.39638-2.98249,2.23135-5.74045,4.82916-7.25826-1.57958-5.22359-.2264-11.23224,3.43988-15.27443,3.66628-4.04219,18.53873-3.35373,23.89123-2.2899l-.41396-.71014Z" fill="#2f2e41"/><path d="M364.3351,116.63934c7.08922,.76528,12.20783,6.90612,16.53007,12.57718,2.49124,3.26867,5.10079,6.87836,5.03825,10.98769-.06323,4.15464-2.84103,7.71815-4.16859,11.65548-2.16993,6.4357-.05508,14.09269,5.11032,18.50239-5.104,.96855-10.62156-2.85843-11.50267-7.97825-1.02573-5.96009,3.49231-11.7125,2.95723-17.73649-.47141-5.30721-4.65372-9.39174-8.20931-13.35993-3.55558-3.96819-6.8949-9.23388-5.25915-14.30468l-.49616-.3434Z" fill="#2f2e41"/></g></svg>