<svg width="288" height="32" xmlns="http://www.w3.org/2000/svg" viewBox="0 0 647 70"><title>logo</title>
<path d="M306,248h0c0-19,14-35,35-35s20,4,26,10l-9,11c-5-5-10-8-17-8s-19,9-19,21h0c0,12,8,21,19,21s12-3,17-8l9,10c-7,7-14,12-27,12S306,268,306,248Z" transform="translate(-306 -213)" style="fill:#fff"/>
<path d="M407,214h13l28,68H433l-6-15H399l-6,15H378Zm15,40-9-22-9,22Z" transform="translate(-306 -213)" style="fill:#fff"/>
<path d="M458,272l9-11c6,5,12,8,20,8s10-2,10-6h0c0-4-2-6-13-9s-22-7-22-21h0c0-12,10-20,23-20a38,38,0,0,1,25,9l-8,11c-6-4-12-7-17-7s-9,3-9,6h0c0,4,3,6,14,9s21,9,21,20h0c0,13-10,21-24,21A42,42,0,0,1,458,272Z" transform="translate(-306 -213)" style="fill:#fff"/>
<path d="M523,272l9-11c6,5,12,8,20,8s10-2,10-6h0c0-4-2-6-13-9s-22-7-22-21h0c0-12,10-20,23-20a38,38,0,0,1,25,9l-8,11c-6-4-12-7-17-7s-9,3-9,6h0c0,4,3,6,14,9s21,9,21,20h0c0,13-10,21-24,21A42,42,0,0,1,523,272Z" transform="translate(-306 -213)" style="fill:#fff"/>
<path d="M593,214h15v68H593Z" transform="translate(-306 -213)" style="fill:#fff"/>
<path d="M626,248h0c0-19,15-35,35-35s35,16,35,35h0c0,19-15,35-35,35S626,267,626,248Zm55,0h0c0-12-8-21-20-21s-20,9-20,21h0c0,12,8,21,20,21S682,260,682,248Z" transform="translate(-306 -213)" style="fill:#fff"/>
<path d="M715,214h27c16,0,25,10,25,23h0c0,16-12,24-27,24H729v20H715Zm26,34c7,0,12-4,12-10h0c0-7-5-10-12-10H729v21Z" transform="translate(-306 -213)" style="fill:#fff"/>
<path d="M783,214h50v13H797v14h31v13H797v14h36v13H783Z" transform="translate(-306 -213)" style="fill:#fff"/>
<path d="M852,214h15v68H852Z" transform="translate(-306 -213)" style="fill:#fff"/>
<path d="M911,214h13l28,68H937l-6-15H903l-6,15H882Zm15,40-9-22-9,22Z" transform="translate(-306 -213)" style="fill:#fff"/></svg>