<svg xmlns="http://www.w3.org/2000/svg" viewBox="0 0 1854.54 295" preserveAspectRatio="xMinYMid" width="1854.54" height="295"><path d="m14.47 145.7 6.898 6.899c0.102 0.101 0.199 0.101 0.3 0.101 0.102 0 0.2 0 0.302-0.101l6.898-6.899c0.102-0.1 0.102-0.2 0.102-0.3s0-0.2-0.102-0.3l-0.7-0.7c-0.101-0.1-0.198-0.1-0.3-0.1-0.101 0-0.2 0-0.301 0.1l-5.8 5.8-5.801-5.8c-0.101-0.1-0.199-0.1-0.301-0.1-0.101 0-0.199 0-0.301 0.1l-0.699 0.7c-0.101 0.1-0.101 0.2-0.101 0.3-0.294 0.1-0.194 0.2-0.094 0.3z" fill="#fff"/></svg>
