<?xml version="1.0" encoding="UTF-8"?><svg enable-background="new 0 0 376.3 74.8" version="1.1" viewBox="0 0 376.3 74.8" xml:space="preserve" xmlns="http://www.w3.org/2000/svg"><g fill="#28466a">	<path d="m116.4 14.8v31.3c0 2.8 0.2 5.4-2.3 7.3-2.3 1.9-6.2 2.5-10.4 2.5-6.4 0-13.2-1.5-13.2-1.5l-1.5 4s9.5 2 16.4 2.1c5.8 0.1 10.9-1.2 13.7-4.4 2.3-2.6 3-5.6 2.9-10.7v-30.6h-5.6"/><path d="m163.1 32.1c-4.2-2.3-9.3-3.5-15.1-3.5-5.7 0-10.8 1.2-15.1 3.5-5.4 2.9-8.1 7.2-8.1 12.6s2.7 9.7 8.1 12.6c4.3 2.3 9.3 3.5 15.1 3.5 5.7 0 10.8-1.2 15-3.5 5.4-2.9 8.1-7.2 8.1-12.6 0.1-5.5-2.7-9.7-8-12.6m-3.3 22c-3.3 1.9-7.2 2.8-11.8 2.8-4.7 0-8.7-0.9-11.9-2.7-3.9-2.2-5.8-5.3-5.8-9.5 0-4.1 2-7.3 5.8-9.5 3.2-1.8 7.2-2.7 11.9-2.7 4.6 0 8.6 0.9 11.9 2.7 3.8 2.2 5.8 5.4 5.8 9.5 0 4-2 7.2-5.9 9.4z"/><path d="m212.3 32.1c-4.2-2.3-9.3-3.5-15.1-3.5-5.7 0-10.8 1.2-15.1 3.5-5.4 2.9-8.1 7.2-8.1 12.6s2.7 9.7 8.1 12.6c4.3 2.3 9.3 3.5 15.1 3.5 5.7 0 10.8-1.2 15-3.5 5.4-2.9 8.1-7.2 8.1-12.6 0.1-5.5-2.6-9.7-8-12.6m-3.2 22c-3.3 1.9-7.2 2.8-11.8 2.8-4.7 0-8.7-0.9-11.9-2.7-3.9-2.2-5.8-5.3-5.8-9.5 0-4.1 2-7.3 5.8-9.5 3.2-1.8 7.2-2.7 11.9-2.7 4.6 0 8.6 0.9 11.9 2.7 3.8 2.2 5.8 5.4 5.8 9.5-0.1 4-2.1 7.2-5.9 9.4z"/><path d="m280.2 31.3c-3-1.8-6.9-2.7-11.5-2.7-5.9 0-10.6 1.8-14.2 5.4-3.4-3.6-8.2-5.4-14.1-5.4-4.8 0-8.7 1-11.7 2.9v-2.5h-5.3v31.1h5.3v-21.2c0.4-1.5 1.4-2.9 3-4.1 2.2-1.5 5-2.3 8.5-2.3 3.1 0 5.7 0.6 7.9 1.9 2.6 1.5 3.8 3.5 3.8 6.3v19.6h5.2v-19.7c0-2.8 1.2-4.8 3.8-6.3 2.2-1.2 4.9-1.9 8-1.9s5.8 0.6 8 1.9c2.6 1.5 3.8 3.5 3.8 6.3v19.6h5.3v-18.9c-0.1-4.4-2-7.8-5.8-10"/><polyline points="290.2 14.8 290.2 60.2 295.5 60.2 295.5 14.8 290.2 14.8"/><polyline points="354.5 14.8 354.5 49.9 359.8 49.9 359.8 14.8 354.5 14.8"/><path d="m340.7 29v5.3c-4.5-3.8-10.5-5.8-17.9-5.8-5.9 0-11 1.1-15.2 3.4-5.2 2.9-7.9 7.1-7.9 12.7 0 5.5 2.7 9.8 8.1 12.6 4.2 2.3 9.3 3.4 15.2 3.4 2.9 0 5.8-0.3 8.4-1 3.7-1 6.8-2.4 9.2-4.3v4.8h5.3v-31.1h-5.2m-35.5 15.7c0-4.1 2-7.3 5.8-9.5 3.2-1.8 7.3-2.7 12-2.7 5.8 0 10.3 1.4 13.5 4.2 2.8 2.5 4.2 5.7 4.2 9.6v3.7c-2.2 2.5-5.5 4.4-9.7 5.7-2.5 0.8-5.2 1.2-8 1.2-4.8 0-8.8-0.9-12-2.6-3.9-2.3-5.8-5.4-5.8-9.6z"/><path d="m357.2 54.3c-3.7 0-4.2 1.9-4.2 3.1s0.6 3.1 4.2 3.1c3.7 0 4.2-2 4.2-3.1s-0.5-3.1-4.2-3.1z"/><path d="m376.3 20.4c0 3.1-2 5.7-5.6 5.7s-5.6-2.6-5.6-5.7 2-5.7 5.6-5.7 5.6 2.6 5.6 5.7zm-10 0c0 2.6 1.6 4.6 4.4 4.6s4.4-2 4.4-4.6-1.6-4.6-4.4-4.6-4.4 2-4.4 4.6zm5.5 0.7c2.2-0.4 2-3.7-0.5-3.7h-2.7v5.8h1.1v-2h1l1.6 2h1.2v-0.2l-1.7-1.9zm-0.6-2.7c1.3 0 1.3 1.9 0 1.9h-1.6v-1.9h1.6z"/></g><g fill="#28466a"><path d="m13.5 37.7l-1.5-1.4c-4.5-4.5-5.8-10.8-4.2-16.5-4.5-1-7.8-5-7.8-9.8 0-5.5 4.5-10 10-10 5 0 9.1 3.6 9.9 8.4 5.4-1.3 11.3 0.2 15.5 4.4l0.6 0.6-7.4 7.4-0.6-0.6c-2.4-2.4-6.3-2.4-8.7 0s-2.4 6.3 0 8.7l1.4 1.4 7.4 7.4 7.8 7.8-7.4 7.4-7.8-7.8-7.2-7.4z"/><path d="m21.8 29.5l7.8-7.8 7.4-7.4 1.4-1.4c4.5-4.5 10.8-5.9 16.4-4.3 0.7-4.8 4.9-8.6 10-8.6 5.5 0 10 4.5 10 10 0 5.1-3.8 9.3-8.7 9.9 1.6 5.6 0.2 11.9-4.2 16.3l-0.6 0.6-7.4-7.4 0.6-0.6c2.4-2.4 2.4-6.3 0-8.7s-6.3-2.4-8.7 0l-1.4 1.4-7.4 7.5-7.8 7.8-7.4-7.3z"/><path d="m55 66.8c-5.7 1.7-12.1 0.4-16.6-4.1l-0.6-0.6 7.4-7.4 0.6 0.6c2.4 2.4 6.3 2.4 8.7 0s2.4-6.3 0-8.7l-1.5-1.5-7.4-7.4-7.8-7.8 7.4-7.4 7.8 7.8 7.4 7.4 1.5 1.5c4.2 4.2 5.7 10.2 4.4 15.7 4.9 0.7 8.6 4.9 8.6 9.9 0 5.5-4.5 10-10 10-4.9 0-8.9-3.5-9.9-8z"/><path d="m52.2 46l-7.8 7.8-7.4 7.4-1.4 1.4c-4.3 4.3-10.3 5.7-15.7 4.4-1 4.5-5 7.8-9.8 7.8-5.5 0-10-4.5-10-10-0.1-4.8 3.2-8.7 7.6-9.8-1.4-5.5 0.1-11.5 4.3-15.8l0.6-0.6 7.4 7.4-0.6 0.6c-2.4 2.4-2.4 6.3 0 8.7s6.3 2.4 8.7 0l1.4-1.4 7.4-7.4 7.8-7.8 7.5 7.3z"/></g></svg>