<svg clip-rule="evenodd" fill-rule="evenodd" stroke-linejoin="round" stroke-miterlimit="2" viewBox="0 0 113 45" width="113" xmlns="http://www.w3.org/2000/svg"><g fill-rule="nonzero"><path d="M21.987 11.052c-5.731.216-10.468 4.685-11.02 10.392h.753a10.6888 10.6888 0 0 1 3.066-6.45c.389.358.813.677 1.265.951-.833 1.611-1.342 3.498-1.481 5.499h.184c.144-2.007.664-3.858 1.458-5.402 1.02.594 2.222 1.032 3.527 1.287-.23 1.707-.345 3.427-.342 5.15h-1.159v.185h1.159c.004 1.826.123 3.582.342 5.152-1.305.253-2.507.692-3.527 1.286a13.6825 13.6825 0 0 1-1.338-4.293h-.188c.225 1.587.687 3.079 1.365 4.39a7.917 7.917 0 0 0-1.265.952 10.6835 10.6835 0 0 1-3.086-6.673h-.755c.53 5.902 5.535 10.479 11.46 10.479 6.273 0 11.45-5.13 11.507-11.403.001-1.568-.32-3.122-.942-4.561-1.875-4.349-6.252-7.115-10.983-6.942v.001Zm.431.747c.212 0 .424.007.635.019.499.466.969 1.465 1.345 2.894.208.807.371 1.624.489 2.45-.814.146-1.641.219-2.469.219-.828 0-1.655-.073-2.471-.219.118-.826.281-1.643.489-2.45.376-1.43.846-2.43 1.345-2.894.212-.012.425-.019.637-.019Zm-.91.039c-.473.536-.901 1.496-1.25 2.826-.209.812-.374 1.634-.493 2.464-1.285-.251-2.466-.682-3.467-1.268.939-1.756 2.238-3.099 3.737-3.798.484-.108.977-.183 1.473-.224Zm1.82 0c.5.042.995.119 1.484.23 1.494.702 2.788 2.042 3.724 3.792-.999.586-2.182 1.017-3.467 1.269-.119-.829-.283-1.652-.493-2.464-.349-1.33-.777-2.29-1.248-2.827Zm-4.068.429c-.896.557-1.72 1.354-2.431 2.368-.253.363-.484.739-.692 1.129a7.783 7.783 0 0 1-1.22-.917 10.6906 10.6906 0 0 1 4.343-2.58Zm6.329.009c1.626.502 3.111 1.382 4.331 2.569a7.758 7.758 0 0 1-1.223.919c-.208-.39-.439-.766-.692-1.129-.706-1.01-1.526-1.804-2.416-2.359Zm4.462 2.716c.947.954 1.708 2.077 2.242 3.311.571 1.318.869 2.739.879 4.176h-2.868c-.013-2.381-.545-4.648-1.519-6.534.453-.275.877-.594 1.266-.953Zm-1.429 1.05c.929 1.807 1.484 4.031 1.497 6.437h-4.681c.002-1.723-.112-3.443-.343-5.15 1.306-.255 2.509-.693 3.527-1.287Zm-8.701 1.321c.824.146 1.659.22 2.497.219.836.001 1.671-.073 2.495-.219.219 1.558.337 3.303.341 5.116h-1.613c-.037.065-.079.127-.127.185h1.738a37.891 37.891 0 0 1-.339 5.117 14.2373 14.2373 0 0 0-4.992 0 37.9018 37.9018 0 0 1-.339-5.117h1.771c-.047-.058-.088-.12-.123-.185h-1.648c.004-1.813.12-3.558.339-5.116ZM4.565 18.908c-1.806.019-3.322 1.418-3.486 3.217-.195 2.109 1.456 3.89 3.512 3.89 1.724 0 3.164-1.256 3.466-2.908h6.077v1.331h1.295v-1.331h1.146v1.959h1.293v-3.252H8.057c-.305-1.679-1.786-2.911-3.492-2.906Zm-.08 1.321c.032-.001.062-.001.093-.001 1.231 0 2.244 1.011 2.244 2.242-.002 1.23-1.013 2.24-2.244 2.242-1.216-.021-2.206-1.027-2.206-2.244 0-1.181.933-2.171 2.113-2.239Zm17.916.531c-.551.017-.996.474-.996 1.027 0 .371.201.714.524.895l-.524 2.68h2.053l-.524-2.68c.324-.181.525-.524.525-.895 0-.564-.464-1.027-1.026-1.027h-.032Zm3.036 1.904h4.682c-.013 2.406-.568 4.632-1.497 6.438-1.018-.594-2.221-1.033-3.527-1.286.23-1.708.345-3.429.342-5.152Zm4.867 0h2.868a10.6945 10.6945 0 0 1-3.122 7.487 7.983 7.983 0 0 0-1.265-.953c.974-1.886 1.506-4.151 1.519-6.534Zm-7.555 5.068c.717.017 1.432.088 2.138.214-.118.825-.281 1.644-.489 2.451-.376 1.43-.846 2.428-1.344 2.893-.424.025-.848.025-1.273 0-.499-.465-.969-1.464-1.345-2.893-.208-.807-.371-1.625-.489-2.45.926-.166 1.864-.237 2.803-.215h-.001Zm2.32.248c1.287.252 2.468.684 3.467 1.267-.939 1.758-2.238 3.1-3.737 3.8-.484.108-.976.183-1.471.224.471-.538.899-1.497 1.25-2.826.209-.812.373-1.634.491-2.464v-.001Zm-5.302 0c.117.829.282 1.652.491 2.464.349 1.331.777 2.291 1.25 2.827-.496-.041-.987-.116-1.472-.224-1.5-.7-2.799-2.042-3.738-3.798 1-.586 2.182-1.017 3.469-1.269Zm-3.63 1.365c.208.39.439.766.692 1.129.712 1.014 1.535 1.81 2.431 2.368a10.7142 10.7142 0 0 1-4.344-2.579c.376-.345.784-.652 1.221-.917v-.001Zm12.562 0c.435.265.844.572 1.219.917a10.7016 10.7016 0 0 1-4.343 2.58c.895-.558 1.719-1.354 2.43-2.368.253-.363.484-.739.694-1.129ZM35.722 26.561V15.057h4.34c.764 0 1.347.036 1.75.109.565.095 1.039.274 1.42.538.382.264.69.634.923 1.11.232.476.349 1 .349 1.57 0 .978-.312 1.806-.934 2.484-.623.677-1.748 1.016-3.375 1.016h-2.95v4.677h-1.523Zm1.523-6.035h2.974c.984 0 1.682-.183 2.095-.549.414-.366.62-.882.62-1.546 0-.481-.121-.893-.365-1.236-.243-.343-.563-.569-.961-.679-.256-.068-.73-.102-1.42-.102h-2.943v4.112ZM50.7 25.533c-.523.445-1.027.759-1.511.942-.484.183-1.003.274-1.557.274-.916 0-1.62-.223-2.111-.67-.492-.448-.738-1.019-.738-1.715 0-.408.093-.781.279-1.118.185-.338.429-.609.729-.813.301-.204.64-.358 1.017-.463.277-.073.695-.144 1.255-.212 1.141-.136 1.98-.298 2.519-.486.006-.194.008-.317.008-.369 0-.575-.133-.981-.4-1.216-.361-.32-.897-.479-1.609-.479-.664 0-1.155.116-1.471.349-.317.233-.551.645-.703 1.236l-1.381-.188c.126-.591.332-1.069.62-1.432.288-.364.704-.644 1.248-.84.544-.196 1.174-.294 1.891-.294.712 0 1.29.083 1.735.251.444.167.771.378.98.631.21.254.356.575.44.962.047.24.071.675.071 1.303v1.883c0 1.313.03 2.144.09 2.492.06.347.179.681.357 1h-1.475c-.147-.293-.241-.636-.283-1.028Zm-.118-3.155c-.512.21-1.281.388-2.307.534-.581.084-.991.178-1.232.283-.241.104-.426.257-.557.459-.131.201-.196.425-.196.671 0 .376.142.69.427.941.285.251.703.377 1.252.377.544 0 1.028-.119 1.452-.357.424-.238.735-.564.934-.977.151-.319.227-.79.227-1.413v-.518ZM53.635 24.073l1.397-.219c.078.56.297.989.655 1.287.359.298.859.447 1.503.447.649 0 1.13-.132 1.444-.396.314-.264.471-.574.471-.93 0-.319-.139-.57-.416-.754-.194-.125-.675-.285-1.444-.478-1.036-.262-1.754-.488-2.154-.679-.4-.191-.704-.455-.911-.793-.206-.337-.31-.71-.31-1.118 0-.371.085-.715.255-1.032.171-.316.402-.579.695-.789.22-.162.519-.299.899-.412.379-.112.786-.168 1.22-.168.654 0 1.228.094 1.722.282.495.188.86.444 1.095.765.236.322.398.752.487 1.291l-1.381.189c-.063-.429-.245-.764-.546-1.005-.301-.241-.726-.361-1.275-.361-.649 0-1.112.107-1.389.322-.277.214-.416.465-.416.753 0 .183.057.348.173.495.115.151.295.277.541.376.141.053.557.173 1.248.361.999.267 1.696.486 2.091.656.395.17.705.417.93.741.225.325.338.727.338 1.209 0 .471-.138.914-.412 1.33-.275.416-.671.738-1.189.965-.518.228-1.104.341-1.758.341-1.083 0-1.908-.224-2.476-.674-.568-.45-.93-1.117-1.087-2.002ZM61.671 24.073l1.397-.219c.078.56.297.989.655 1.287.358.298.859.447 1.503.447.649 0 1.13-.132 1.444-.396.314-.264.471-.574.471-.93 0-.319-.139-.57-.416-.754-.194-.125-.675-.285-1.444-.478-1.036-.262-1.754-.488-2.154-.679-.401-.191-.704-.455-.911-.793-.206-.337-.31-.71-.31-1.118 0-.371.085-.715.255-1.032.17-.316.402-.579.695-.789.22-.162.519-.299.899-.412.379-.112.786-.168 1.22-.168.654 0 1.228.094 1.722.282.495.188.86.444 1.095.765.236.322.398.752.487 1.291l-1.382.189c-.062-.429-.244-.764-.545-1.005-.301-.241-.726-.361-1.275-.361-.649 0-1.112.107-1.389.322-.277.214-.416.465-.416.753 0 .183.057.348.173.495.115.151.295.277.541.376.141.053.557.173 1.248.361.999.267 1.696.486 2.091.656.395.17.705.417.93.741.225.325.338.727.338 1.209 0 .471-.138.914-.412 1.33-.275.416-.671.738-1.189.965-.518.228-1.104.341-1.758.341-1.083 0-1.908-.224-2.476-.674-.568-.45-.93-1.117-1.087-2.002ZM70.28 26.561V15.057h1.412v6.56l3.343-3.39h1.829l-3.186 3.092 3.508 5.242h-1.742L72.689 22.3l-.997.957v3.304H70.28ZM84.013 23.877l1.46.181c-.23.853-.657 1.514-1.279 1.985-.623.471-1.418.706-2.386.706-1.219 0-2.186-.375-2.9-1.126-.714-.75-1.071-1.803-1.071-3.158 0-1.402.361-2.491 1.083-3.265s1.658-1.161 2.809-1.161c1.115 0 2.025.379 2.731 1.138.707.758 1.06 1.825 1.06 3.201 0 .084-.003.21-.008.377h-6.215c.052.916.311 1.617.777 2.103.465.487 1.046.73 1.742.73.518 0 .96-.136 1.326-.408.366-.272.657-.706.871-1.303Zm-4.638-2.283h4.654c-.063-.701-.241-1.227-.534-1.578-.45-.544-1.033-.816-1.75-.816-.649 0-1.194.217-1.636.651-.442.435-.687 1.015-.734 1.743ZM87.184 29.771l-.157-1.326c.308.083.578.125.808.125.314 0 .565-.052.753-.157.189-.104.343-.251.463-.439.089-.142.233-.492.432-1.052.026-.078.068-.193.125-.345l-3.162-8.35h1.522l1.735 4.826c.225.612.426 1.256.604 1.931.162-.649.356-1.282.581-1.899l1.781-4.858h1.413l-3.171 8.475c-.34.916-.604 1.546-.792 1.892-.252.465-.539.807-.864 1.024-.324.217-.711.325-1.161.325-.272 0-.576-.057-.91-.172Z"/></g></svg>
