<svg clip-rule="evenodd" fill-rule="evenodd" stroke-linejoin="round" stroke-miterlimit="2" viewBox="0 0 105 30" width="113" xmlns="http://www.w3.org/2000/svg"><g fill-rule="nonzero"><path d="M21.987,3.552c-5.731,0.216 -10.468,4.685 -11.02,10.392l0.753,0c0.252,-2.437 1.335,-4.716 3.066,-6.45c0.389,0.358 0.813,0.677 1.265,0.951c-0.833,1.611 -1.342,3.498 -1.481,5.499l0.184,0c0.144,-2.007 0.664,-3.858 1.458,-5.402c1.02,0.594 2.222,1.032 3.527,1.287c-0.23,1.707 -0.345,3.427 -0.342,5.15l-1.159,0l-0,0.185l1.159,-0c0.004,1.826 0.123,3.582 0.342,5.152c-1.305,0.253 -2.507,0.692 -3.527,1.286c-0.68,-1.348 -1.132,-2.799 -1.338,-4.293l-0.188,-0c0.225,1.587 0.687,3.079 1.365,4.39c-0.452,0.274 -0.876,0.593 -1.265,0.952c-1.785,-1.789 -2.88,-4.154 -3.086,-6.673l-0.755,0c0.53,5.902 5.535,10.479 11.46,10.479c6.273,0 11.45,-5.13 11.507,-11.403c0.001,-1.568 -0.32,-3.122 -0.942,-4.561c-1.875,-4.349 -6.252,-7.115 -10.983,-6.942l-0,0.001Zm0.431,0.747c0.212,0 0.424,0.007 0.635,0.019c0.499,0.466 0.969,1.465 1.345,2.894c0.208,0.807 0.371,1.624 0.489,2.45c-0.814,0.146 -1.641,0.219 -2.469,0.219c-0.828,-0 -1.655,-0.073 -2.471,-0.219c0.118,-0.826 0.281,-1.643 0.489,-2.45c0.376,-1.43 0.846,-2.43 1.345,-2.894c0.212,-0.012 0.425,-0.019 0.637,-0.019Zm-0.91,0.039c-0.473,0.536 -0.901,1.496 -1.25,2.826c-0.209,0.812 -0.374,1.634 -0.493,2.464c-1.285,-0.251 -2.466,-0.682 -3.467,-1.268c0.939,-1.756 2.238,-3.099 3.737,-3.798c0.484,-0.108 0.977,-0.183 1.473,-0.224Zm1.82,-0c0.5,0.042 0.995,0.119 1.484,0.23c1.494,0.702 2.788,2.042 3.724,3.792c-0.999,0.586 -2.182,1.017 -3.467,1.269c-0.119,-0.829 -0.283,-1.652 -0.493,-2.464c-0.349,-1.33 -0.777,-2.29 -1.248,-2.827Zm-4.068,0.429c-0.896,0.557 -1.72,1.354 -2.431,2.368c-0.253,0.363 -0.484,0.739 -0.692,1.129c-0.435,-0.265 -0.845,-0.572 -1.22,-0.917c1.221,-1.195 2.71,-2.079 4.343,-2.58Zm6.329,0.009c1.626,0.502 3.111,1.382 4.331,2.569c-0.377,0.346 -0.786,0.654 -1.223,0.919c-0.208,-0.39 -0.439,-0.766 -0.692,-1.129c-0.706,-1.01 -1.526,-1.804 -2.416,-2.359Zm4.462,2.716c0.947,0.954 1.708,2.077 2.242,3.311c0.571,1.318 0.869,2.739 0.879,4.176l-2.868,0c-0.013,-2.381 -0.545,-4.648 -1.519,-6.534c0.453,-0.275 0.877,-0.594 1.266,-0.953Zm-1.429,1.05c0.929,1.807 1.484,4.031 1.497,6.437l-4.681,0c0.002,-1.723 -0.112,-3.443 -0.343,-5.15c1.306,-0.255 2.509,-0.693 3.527,-1.287Zm-8.701,1.321c0.824,0.146 1.659,0.22 2.497,0.219c0.836,0.001 1.671,-0.073 2.495,-0.219c0.219,1.558 0.337,3.303 0.341,5.116l-1.613,0c-0.037,0.065 -0.079,0.127 -0.127,0.185l1.738,-0c0.003,1.712 -0.111,3.422 -0.339,5.117c-1.651,-0.294 -3.341,-0.294 -4.992,0c-0.228,-1.695 -0.342,-3.406 -0.339,-5.117l1.771,-0c-0.047,-0.058 -0.088,-0.12 -0.123,-0.185l-1.648,0c0.004,-1.813 0.12,-3.558 0.339,-5.116Zm-15.356,1.545c-1.806,0.019 -3.322,1.418 -3.486,3.217c-0.195,2.109 1.456,3.89 3.512,3.89c1.724,-0 3.164,-1.256 3.466,-2.908l6.077,0l0,1.331l1.295,-0l0,-1.331l1.146,0l-0,1.959l1.293,0l0,-3.252l-9.811,-0c-0.305,-1.679 -1.786,-2.911 -3.492,-2.906Zm-0.08,1.321c0.032,-0.001 0.062,-0.001 0.093,-0.001c1.231,-0 2.244,1.011 2.244,2.242c-0.002,1.23 -1.013,2.24 -2.244,2.242c-1.216,-0.021 -2.206,-1.027 -2.206,-2.244c-0,-1.181 0.933,-2.171 2.113,-2.239Zm17.916,0.531c-0.551,0.017 -0.996,0.474 -0.996,1.027c-0,0.371 0.201,0.714 0.524,0.895l-0.524,2.68l2.053,-0l-0.524,-2.68c0.324,-0.181 0.525,-0.524 0.525,-0.895c0,-0.564 -0.464,-1.027 -1.026,-1.027l-0.032,0Zm3.036,1.904l4.682,-0c-0.013,2.406 -0.568,4.632 -1.497,6.438c-1.018,-0.594 -2.221,-1.033 -3.527,-1.286c0.23,-1.708 0.345,-3.429 0.342,-5.152Zm4.867,-0l2.868,-0c-0.017,2.809 -1.139,5.499 -3.122,7.487c-0.389,-0.359 -0.813,-0.678 -1.265,-0.953c0.974,-1.886 1.506,-4.151 1.519,-6.534Zm-7.555,5.068c0.717,0.017 1.432,0.088 2.138,0.214c-0.118,0.825 -0.281,1.644 -0.489,2.451c-0.376,1.43 -0.846,2.428 -1.344,2.893c-0.424,0.025 -0.848,0.025 -1.273,0c-0.499,-0.465 -0.969,-1.464 -1.345,-2.893c-0.208,-0.807 -0.371,-1.625 -0.489,-2.45c0.926,-0.166 1.864,-0.237 2.803,-0.215l-0.001,0Zm2.32,0.248c1.287,0.252 2.468,0.684 3.467,1.267c-0.939,1.758 -2.238,3.1 -3.737,3.8c-0.484,0.108 -0.976,0.183 -1.471,0.224c0.471,-0.538 0.899,-1.497 1.25,-2.826c0.209,-0.812 0.373,-1.634 0.491,-2.464l-0,-0.001Zm-5.302,-0c0.117,0.829 0.282,1.652 0.491,2.464c0.349,1.331 0.777,2.291 1.25,2.827c-0.496,-0.041 -0.987,-0.116 -1.472,-0.224c-1.5,-0.7 -2.799,-2.042 -3.738,-3.798c1,-0.586 2.182,-1.017 3.469,-1.269Zm-3.63,1.365c0.208,0.39 0.439,0.766 0.692,1.129c0.712,1.014 1.535,1.81 2.431,2.368c-1.633,-0.501 -3.123,-1.386 -4.344,-2.579c0.376,-0.345 0.784,-0.652 1.221,-0.917l-0,-0.001Zm12.562,-0c0.435,0.265 0.844,0.572 1.219,0.917c-1.221,1.194 -2.71,2.079 -4.343,2.58c0.895,-0.558 1.719,-1.354 2.43,-2.368c0.253,-0.363 0.484,-0.739 0.694,-1.129Z"/><g><path d="M37.535,20.663l-0,-12.853l4.848,-0c0.854,-0 1.505,0.041 1.955,0.123c0.632,0.105 1.161,0.305 1.587,0.6c0.427,0.295 0.77,0.709 1.031,1.241c0.26,0.532 0.39,1.116 0.39,1.753c-0,1.093 -0.348,2.018 -1.044,2.775c-0.695,0.757 -1.952,1.136 -3.77,1.136l-3.296,-0l-0,5.225l-1.701,0Zm1.701,-6.742l3.323,-0c1.098,-0 1.879,-0.205 2.341,-0.614c0.461,-0.409 0.692,-0.985 0.692,-1.727c0,-0.538 -0.136,-0.998 -0.408,-1.381c-0.271,-0.383 -0.629,-0.636 -1.074,-0.758c-0.286,-0.076 -0.815,-0.114 -1.587,-0.114l-3.287,-0l-0,4.594Z"/><path d="M54.268,19.515c-0.584,0.497 -1.147,0.847 -1.687,1.052c-0.541,0.204 -1.121,0.307 -1.741,0.307c-1.023,-0 -1.809,-0.25 -2.358,-0.75c-0.55,-0.5 -0.824,-1.138 -0.824,-1.916c-0,-0.456 0.103,-0.872 0.311,-1.249c0.207,-0.377 0.479,-0.68 0.815,-0.908c0.336,-0.227 0.715,-0.4 1.136,-0.517c0.309,-0.082 0.777,-0.161 1.403,-0.237c1.274,-0.152 2.212,-0.333 2.814,-0.543c0.006,-0.216 0.009,-0.354 0.009,-0.412c-0,-0.643 -0.149,-1.096 -0.447,-1.359c-0.404,-0.357 -1.003,-0.535 -1.798,-0.535c-0.742,-0 -1.29,0.13 -1.644,0.39c-0.353,0.26 -0.615,0.721 -0.784,1.381l-1.544,-0.21c0.141,-0.661 0.372,-1.194 0.693,-1.601c0.322,-0.406 0.786,-0.718 1.394,-0.938c0.608,-0.219 1.312,-0.328 2.113,-0.328c0.795,-0 1.441,0.093 1.938,0.28c0.497,0.187 0.862,0.422 1.096,0.706c0.234,0.283 0.397,0.641 0.491,1.074c0.052,0.269 0.079,0.754 0.079,1.455l-0,2.105c-0,1.467 0.033,2.395 0.1,2.783c0.068,0.389 0.201,0.762 0.399,1.118l-1.648,0c-0.164,-0.327 -0.269,-0.71 -0.316,-1.148Zm-0.131,-3.525c-0.573,0.234 -1.432,0.433 -2.578,0.596c-0.649,0.094 -1.107,0.199 -1.376,0.316c-0.269,0.117 -0.477,0.288 -0.623,0.513c-0.146,0.225 -0.219,0.475 -0.219,0.75c-0,0.42 0.159,0.771 0.478,1.052c0.318,0.28 0.785,0.42 1.398,0.42c0.608,0 1.149,-0.133 1.622,-0.398c0.474,-0.266 0.822,-0.63 1.044,-1.092c0.169,-0.357 0.254,-0.883 0.254,-1.578l-0,-0.579Z"/><path d="M57.548,17.884l1.56,-0.246c0.088,0.626 0.332,1.105 0.732,1.438c0.401,0.334 0.96,0.5 1.679,0.5c0.725,0 1.263,-0.147 1.614,-0.443c0.35,-0.295 0.526,-0.641 0.526,-1.039c-0,-0.356 -0.155,-0.637 -0.465,-0.841c-0.216,-0.141 -0.754,-0.319 -1.613,-0.535c-1.158,-0.292 -1.96,-0.545 -2.407,-0.759c-0.447,-0.213 -0.786,-0.508 -1.017,-0.885c-0.231,-0.377 -0.346,-0.794 -0.346,-1.25c-0,-0.415 0.095,-0.799 0.285,-1.152c0.19,-0.354 0.448,-0.648 0.776,-0.882c0.245,-0.181 0.58,-0.334 1.003,-0.46c0.424,-0.126 0.879,-0.188 1.364,-0.188c0.73,-0 1.372,0.105 1.924,0.315c0.553,0.211 0.96,0.496 1.223,0.855c0.263,0.36 0.445,0.84 0.544,1.442l-1.543,0.211c-0.07,-0.48 -0.273,-0.854 -0.609,-1.123c-0.337,-0.268 -0.811,-0.403 -1.425,-0.403c-0.725,0 -1.242,0.12 -1.552,0.36c-0.31,0.239 -0.465,0.52 -0.465,0.841c0,0.205 0.064,0.389 0.193,0.553c0.129,0.169 0.33,0.31 0.605,0.421c0.158,0.058 0.623,0.192 1.394,0.403c1.117,0.298 1.895,0.542 2.337,0.732c0.441,0.19 0.787,0.466 1.039,0.829c0.251,0.362 0.377,0.812 0.377,1.35c-0,0.526 -0.154,1.021 -0.461,1.486c-0.306,0.465 -0.749,0.824 -1.328,1.078c-0.579,0.255 -1.233,0.382 -1.964,0.382c-1.21,-0 -2.132,-0.252 -2.766,-0.754c-0.634,-0.503 -1.039,-1.248 -1.214,-2.236Z"/><path d="M66.526,17.884l1.56,-0.246c0.088,0.626 0.332,1.105 0.732,1.438c0.401,0.334 0.961,0.5 1.68,0.5c0.724,0 1.262,-0.147 1.613,-0.443c0.35,-0.295 0.526,-0.641 0.526,-1.039c-0,-0.356 -0.155,-0.637 -0.465,-0.841c-0.216,-0.141 -0.754,-0.319 -1.613,-0.535c-1.157,-0.292 -1.96,-0.545 -2.407,-0.759c-0.447,-0.213 -0.786,-0.508 -1.017,-0.885c-0.231,-0.377 -0.346,-0.794 -0.346,-1.25c-0,-0.415 0.095,-0.799 0.285,-1.152c0.19,-0.354 0.448,-0.648 0.776,-0.882c0.245,-0.181 0.58,-0.334 1.004,-0.46c0.423,-0.126 0.878,-0.188 1.363,-0.188c0.731,-0 1.372,0.105 1.924,0.315c0.553,0.211 0.961,0.496 1.224,0.855c0.263,0.36 0.444,0.84 0.543,1.442l-1.543,0.211c-0.07,-0.48 -0.273,-0.854 -0.609,-1.123c-0.336,-0.268 -0.811,-0.403 -1.425,-0.403c-0.725,0 -1.242,0.12 -1.552,0.36c-0.31,0.239 -0.465,0.52 -0.465,0.841c0,0.205 0.065,0.389 0.193,0.553c0.129,0.169 0.33,0.31 0.605,0.421c0.158,0.058 0.623,0.192 1.394,0.403c1.117,0.298 1.896,0.542 2.337,0.732c0.441,0.19 0.788,0.466 1.039,0.829c0.251,0.362 0.377,0.812 0.377,1.35c-0,0.526 -0.154,1.021 -0.46,1.486c-0.307,0.465 -0.75,0.824 -1.329,1.078c-0.578,0.255 -1.233,0.382 -1.964,0.382c-1.21,-0 -2.132,-0.252 -2.766,-0.754c-0.634,-0.503 -1.039,-1.248 -1.214,-2.236Z"/><path d="M76.144,20.663l-0,-12.853l1.578,-0l0,7.33l3.735,-3.788l2.043,-0l-3.56,3.454l3.92,5.857l-1.947,0l-3.077,-4.761l-1.114,1.07l0,3.691l-1.578,0Z"/><path d="M91.487,17.665l1.631,0.201c-0.257,0.953 -0.733,1.693 -1.429,2.219c-0.695,0.526 -1.584,0.789 -2.665,0.789c-1.362,-0 -2.442,-0.42 -3.24,-1.258c-0.798,-0.839 -1.197,-2.016 -1.197,-3.529c0,-1.567 0.404,-2.783 1.21,-3.648c0.807,-0.865 1.853,-1.297 3.139,-1.297c1.245,-0 2.262,0.423 3.051,1.271c0.789,0.847 1.184,2.04 1.184,3.577c-0,0.094 -0.003,0.234 -0.009,0.421l-6.944,-0c0.058,1.023 0.348,1.806 0.868,2.35c0.52,0.543 1.169,0.815 1.946,0.815c0.579,0 1.073,-0.152 1.482,-0.456c0.409,-0.304 0.734,-0.789 0.973,-1.455Zm-5.181,-2.552l5.199,0c-0.07,-0.783 -0.269,-1.37 -0.596,-1.762c-0.503,-0.608 -1.155,-0.912 -1.955,-0.912c-0.725,0 -1.335,0.243 -1.829,0.728c-0.493,0.485 -0.767,1.134 -0.819,1.946Z"/><path d="M95.03,24.249l-0.176,-1.481c0.345,0.093 0.646,0.14 0.903,0.14c0.351,-0 0.632,-0.059 0.842,-0.176c0.21,-0.116 0.383,-0.28 0.517,-0.491c0.1,-0.157 0.26,-0.549 0.483,-1.174c0.029,-0.088 0.076,-0.217 0.14,-0.386l-3.534,-9.329l1.701,-0l1.938,5.392c0.251,0.684 0.476,1.403 0.675,2.157c0.181,-0.725 0.398,-1.432 0.649,-2.122l1.99,-5.427l1.578,-0l-3.542,9.469c-0.38,1.023 -0.675,1.727 -0.885,2.113c-0.281,0.52 -0.602,0.902 -0.965,1.144c-0.362,0.243 -0.795,0.364 -1.297,0.364c-0.304,0 -0.643,-0.064 -1.017,-0.193Z"/></g></g></svg>
