<svg clip-rule="evenodd" fill-rule="evenodd" stroke-linejoin="round" stroke-miterlimit="2" viewBox="0 0 212 45" width="113" xmlns="http://www.w3.org/2000/svg"><g fill-rule="nonzero"><path d="m59.787 3.63c-4.187.158-7.648 3.423-8.051 7.593h.55c.184-1.781.975-3.446 2.24-4.713.284.262.594.495.924.695-.608 1.177-.98 2.556-1.082 4.018h.135c.105-1.467.485-2.819 1.065-3.947.745.434 1.623.754 2.577.94-.168 1.247-.252 2.504-.25 3.763h-.847v.135h.847c.003 1.334.09 2.617.25 3.764-.954.185-1.832.506-2.577.94-.497-.985-.827-2.045-.978-3.137h-.137c.164 1.16.502 2.25.997 3.208-.33.2-.64.433-.924.695-1.304-1.307-2.104-3.035-2.255-4.875h-.551c.387 4.312 4.044 7.656 8.373 7.656 4.583 0 8.365-3.748 8.407-8.331.001-1.146-.234-2.281-.688-3.333-1.37-3.177-4.568-5.198-8.025-5.072zm.315.546c.155 0 .31.005.464.014.365.34.708 1.07.983 2.114.152.59.271 1.187.357 1.79-.595.107-1.199.16-1.804.16s-1.209-.053-1.805-.16c.086-.603.205-1.2.357-1.79.275-1.045.618-1.775.983-2.114.155-.009.31-.014.465-.014zm-.665.028c-.345.392-.658 1.093-.913 2.065-.153.593-.273 1.194-.36 1.8-.939-.183-1.802-.498-2.533-.926.686-1.283 1.635-2.264 2.73-2.775.354-.079.714-.134 1.076-.164zm1.33 0c.365.031.727.087 1.084.168 1.092.513 2.037 1.492 2.721 2.771-.73.428-1.594.743-2.533.927-.087-.606-.207-1.207-.36-1.8-.255-.972-.568-1.673-.912-2.066zm-2.972.314c-.655.407-1.257.989-1.776 1.73-.185.265-.354.54-.506.825-.318-.194-.617-.418-.891-.67.892-.873 1.98-1.519 3.173-1.885zm4.624.006c1.188.367 2.273 1.01 3.164 1.877-.275.253-.574.478-.893.672-.152-.285-.321-.56-.506-.825-.516-.738-1.115-1.318-1.765-1.724zm3.26 1.985c.692.697 1.248 1.517 1.638 2.419.417.963.635 2.001.642 3.051h-2.095c-.01-1.74-.398-3.396-1.11-4.774.331-.201.641-.434.925-.696zm-1.044.767c.679 1.32 1.084 2.945 1.094 4.703h-3.42c.001-1.259-.082-2.516-.251-3.763.954-.186 1.833-.506 2.577-.94zm-6.357.965c.602.107 1.212.161 1.824.16.611.001 1.221-.053 1.823-.16.16 1.138.246 2.413.249 3.738h-1.178c-.027.047-.058.093-.093.135h1.27c.002 1.251-.081 2.5-.248 3.739-1.206-.215-2.441-.215-3.647 0-.167-1.239-.25-2.489-.248-3.739h1.294c-.034-.042-.064-.088-.09-.135h-1.204c.003-1.325.088-2.6.248-3.738zm-11.22 1.129c-1.319.014-2.427 1.036-2.547 2.35-.142 1.541 1.064 2.842 2.566 2.842 1.26 0 2.312-.917 2.533-2.124h4.44v.972h.946v-.972h.837v1.431h.945v-2.376h-7.168c-.223-1.227-1.305-2.127-2.552-2.123zm-.058.965c.023-.001.045-.001.068-.001.899 0 1.639.739 1.639 1.638-.001.899-.74 1.637-1.639 1.638-.889-.015-1.612-.75-1.612-1.639 0-.863.682-1.586 1.544-1.636zm13.09.388c-.403.012-.728.346-.728.75 0 .271.147.522.383.654l-.383 1.958h1.5l-.383-1.958c.237-.132.384-.383.384-.654 0-.412-.339-.75-.75-.75-.008 0-.015 0-.023 0zm2.218 1.391h3.421c-.01 1.758-.415 3.384-1.094 4.704-.744-.434-1.623-.755-2.577-.94.168-1.248.252-2.505.25-3.764zm3.556 0h2.095c-.012 2.052-.832 4.018-2.281 5.47-.284-.262-.594-.495-.924-.696.712-1.378 1.1-3.033 1.11-4.774zm-5.52 3.703c.524.012 1.046.064 1.562.156-.086.603-.205 1.201-.357 1.791-.275 1.045-.618 1.774-.982 2.114-.31.018-.62.018-.93 0-.365-.34-.708-1.07-.983-2.114-.152-.59-.271-1.187-.357-1.79.676-.121 1.362-.173 2.048-.157zm1.695.181c.94.184 1.803.5 2.533.926-.686 1.284-1.635 2.265-2.73 2.776-.354.079-.713.134-1.075.164.344-.393.657-1.094.913-2.065.153-.593.273-1.194.359-1.8zm-3.874 0c.086.606.206 1.207.359 1.8.255.973.568 1.674.913 2.066-.362-.03-.721-.085-1.075-.164-1.096-.511-2.045-1.492-2.731-2.775.73-.428 1.594-.743 2.534-.927zm-2.652.997c.152.285.321.56.506.825.52.741 1.121 1.323 1.776 1.73-1.193-.366-2.282-1.012-3.174-1.884.275-.252.573-.476.892-.67zm9.178 0c.318.194.617.418.891.67-.892.873-1.98 1.519-3.173 1.885.654-.407 1.256-.989 1.775-1.73.185-.265.354-.54.507-.825z" transform="matrix(2.56781 0 0 2.56781 -113.267 -8.30436)"/><g transform="matrix(1 0 0 .596952 2 9.06859)"><path d="m72.564 40.498-5.698-35.973h2.915l3.267 23.581c.351 2.47.654 4.924.908 7.362.547-3.845.869-6.061.967-6.65l4.087-24.293h3.428l3.076 18.207c.771 4.515 1.328 8.761 1.67 12.736.273-2.274.629-4.883 1.069-7.828l3.369-23.115h2.857l-5.889 35.973h-2.739l-4.527-27.409c-.381-2.291-.605-3.698-.674-4.221-.224 1.652-.434 3.059-.629 4.221l-4.556 27.409z"/><path d="m106.9 32.106 2.725.564c-.43 2.667-1.226 4.736-2.388 6.209-1.162 1.472-2.646 2.208-4.453 2.208-2.275 0-4.079-1.174-5.412-3.521-1.333-2.348-2-5.64-2-9.877 0-4.384.674-7.787 2.022-10.208 1.347-2.421 3.095-3.632 5.244-3.632 2.08 0 3.779 1.186 5.097 3.558 1.319 2.372 1.978 5.71 1.978 10.012 0 .262-.005.655-.015 1.178h-11.601c.097 2.863.581 5.055 1.45 6.576.869 1.522 1.953 2.283 3.252 2.283.967 0 1.792-.426 2.475-1.276.684-.851 1.226-2.209 1.626-4.074zm-8.657-7.141h8.687c-.117-2.192-.45-3.836-.996-4.932-.84-1.701-1.929-2.552-3.267-2.552-1.211 0-2.229.679-3.054 2.037s-1.282 3.173-1.37 5.447z"/><path d="m115.367 40.498h-2.446v-35.973h2.637v12.833c1.113-2.339 2.534-3.509 4.262-3.509.957 0 1.863.323 2.718.97.854.646 1.557 1.554 2.109 2.723.552 1.17.984 2.581 1.296 4.233.313 1.653.469 3.419.469 5.301 0 4.466-.659 7.917-1.977 10.355-1.319 2.437-2.901 3.656-4.747 3.656-1.835 0-3.276-1.284-4.321-3.852zm-.029-13.226c0 3.125.254 5.382.762 6.773.83 2.274 1.953 3.411 3.369 3.411 1.152 0 2.148-.839 2.988-2.516s1.26-4.175 1.26-7.496c0-3.403-.403-5.914-1.209-7.534-.805-1.619-1.779-2.429-2.922-2.429-1.152 0-2.148.838-2.988 2.515s-1.26 4.102-1.26 7.276z"/><path d="m127.599 40.498 8.247-35.973h3.061l8.789 35.973h-3.237l-2.505-10.895h-8.979l-2.359 10.895zm6.196-14.772h7.28l-2.241-9.963c-.684-3.026-1.191-5.513-1.523-7.459-.274 2.306-.66 4.596-1.158 6.87z"/><path d="m159.825 40.498v-3.828c-1.211 2.945-2.856 4.417-4.936 4.417-.918 0-1.775-.294-2.571-.883s-1.387-1.329-1.773-2.221c-.385-.891-.656-1.983-.813-3.276-.107-.867-.161-2.241-.161-4.122v-16.147h2.637v14.454c0 2.306.054 3.86.161 4.662.166 1.161.518 2.073 1.055 2.736.537.662 1.201.994 1.992.994s1.533-.34 2.227-1.019c.693-.679 1.184-1.603 1.472-2.772.288-1.17.432-2.867.432-5.092v-13.963h2.637v26.06z"/><path d="m172.071 36.548.381 3.901c-.742.262-1.406.393-1.992.393-.957 0-1.699-.254-2.227-.761-.527-.507-.898-1.174-1.113-2s-.322-2.564-.322-5.214v-14.993h-1.934v-3.436h1.934v-6.453l2.622-2.651v9.104h2.651v3.436h-2.651v15.238c0 1.26.046 2.07.139 2.43.093.359.244.646.454.858.21.213.51.319.901.319.293 0 .679-.057 1.157-.171z"/><path d="m174.649 40.498v-35.973h2.637v12.907c1.231-2.389 2.783-3.583 4.658-3.583 1.153 0 2.154.381 3.003 1.141.85.761 1.458 1.812 1.824 3.154.366 1.341.549 3.288.549 5.84v16.514h-2.636v-16.514c0-2.209-.286-3.816-.857-4.822-.572-1.006-1.38-1.509-2.425-1.509-.781 0-1.516.339-2.204 1.018-.689.679-1.179 1.599-1.472 2.761-.293 1.161-.44 2.764-.44 4.809v14.257z"/><path d="m191.334 40.498v-26.06h2.373v3.706c1.143-2.863 2.793-4.295 4.951-4.295.938 0 1.8.282 2.586.847.786.564 1.374 1.304 1.765 2.221.39.916.664 2.004.82 3.263.098.818.147 2.25.147 4.295v16.023h-2.637v-15.852c0-1.799-.103-3.145-.308-4.036-.205-.892-.569-1.604-1.091-2.135-.523-.532-1.135-.798-1.838-.798-1.123 0-2.093.597-2.908 1.792-.816 1.194-1.223 3.46-1.223 6.797v14.232z"/></g></g></svg>
