<svg xmlns="http://www.w3.org/2000/svg" viewBox="0 0 149.7 149.6">
	<style>
		path {fill: #000;}
		@media (prefers-color-scheme: dark) {
		  path {fill: #fff;}
		}
	</style>
	<path d="M141.4 42v.5H140V46h-.5v-3.5h-1.3V42h3.2z"/>
	<path d="M141.8 42h.8l1.1 3.3 1.1-3.3h.8v3.9h-.5v-2.3-.4-.6l-1.1 3.3h-.5l-1.1-3.3V45.8h-.5V42z"/>
	<g>
		<path d="M27 75.5l-2.9-2.9c-8.9-8.9-11.7-21.7-8.3-33C6.9 37.6.2 29.6.2 20.1c0-11.1 9-20 20-20 10 0 18.2 7.3 19.8 16.8 10.8-2.5 22.6.4 31.1 8.8l1.2 1.2-14.9 14.7-1.1-1.2c-4.8-4.8-12.6-4.8-17.4 0-4.8 4.8-4.8 12.6 0 17.4l2.9 2.9 14.8 14.8 15.6 15.6-14.8 14.8-15.6-15.7L27 75.5z" />
		<path d="M43.5 58.9l15.6-15.6 14.8-14.8 2.9-2.9c8.9-8.9 21.6-11.7 32.8-8.4C111 7.5 119.4 0 129.5 0c11.1 0 20 9 20 20 0 10.2-7.6 18.6-17.4 19.9 3.2 11.2.4 23.8-8.4 32.7l-1.2 1.2L107.7 59l1.1-1.1c4.8-4.8 4.8-12.6 0-17.4-4.8-4.8-12.5-4.8-17.4 0l-2.9 2.9-14.6 14.7-15.6 15.6-14.8-14.8z" />
		<path d="M110.1 133.5c-11.4 3.5-24.2.7-33.2-8.3l-1.1-1.1 14.8-14.8 1.1 1.1c4.8 4.8 12.6 4.8 17.4 0 4.8-4.8 4.8-12.5 0-17.4l-2.9-2.9-14.9-14.6-15.6-15.7L90.5 45l15.6 15.6 14.8 14.8 2.9 2.9c8.5 8.5 11.4 20.5 8.8 31.3 9.7 1.4 17.2 9.7 17.2 19.8 0 11.1-9 20-20 20-9.8.2-17.9-6.7-19.7-15.9z" />
		<path d="M104.3 92l-15.6 15.6-14.8 14.8-2.9 2.9c-8.5 8.5-20.6 11.4-31.5 8.7-2 8.9-10 15.5-19.5 15.5-11.1 0-20-9-20-20 0-9.5 6.6-17.4 15.4-19.5-2.8-11 .1-23.1 8.7-31.7l1.1-1.1L40 92l-1.1 1.1c-4.8 4.8-4.8 12.6 0 17.4 4.8 4.8 12.6 4.8 17.4 0l2.9-2.9L74 92.8l15.6-15.6L104.3 92z" />
	</g>
</svg>
