<svg xmlns="http://www.w3.org/2000/svg" viewBox="0 0 16 16">
	<path d="m14.14 4.2v.05h-.14v.35h-.05v-.35h-.13v-.05h.32zm.04 0h.08l.11.33l.11-.33h.08v.39h-.05v-.23v-.04v-.06l-.11.33h-.05l-.11-.33v.32h-.05v-.38zm-11.48 3.35l-.29-.29c-.89-.89-1.17-2.17-.83-3.3c-.89-.2-1.56-1-1.56-1.95c0-1.11.9-2 2-2c1 0 1.82.73 1.98 1.68c1.08-.25 2.26.04 3.11.88l.12.12l-1.49 1.47l-.11-.12c-.48-.48-1.26-.48-1.74 0c-.48.48-.48 1.26 0 1.74l.29.29l1.48 1.48l1.56 1.56l-1.48 1.48l-1.56-1.57l-1.48-1.47zm1.65-1.66l1.56-1.56l1.48-1.48l.29-.29c.89-.89 2.16-1.17 3.28-.84c.14-.97.98-1.72 1.99-1.72c1.11 0 2 .9 2 2c0 1.02-.76 1.86-1.74 1.99c.32 1.12.04 2.38-.84 3.27l-.12.12l-1.48-1.48l.11-.11c.48-.48.48-1.26 0-1.74c-.48-.48-1.25-.48-1.74 0l-.29.29l-1.46 1.47l-1.56 1.56l-1.48-1.48zm6.66 7.46c-1.14.35-2.42.07-3.32-.83l-.11-.11l1.48-1.48l.11.11c.48.48 1.26.48 1.74 0c.48-.48.48-1.25 0-1.74l-.29-.29l-1.49-1.46l-1.56-1.57l1.48-1.48l1.56 1.56l1.48 1.48l.29.29c.85.85 1.14 2.05.88 3.13c.97.14 1.72.97 1.72 1.98c0 1.11-.9 2-2 2c-.98.02-1.79-.67-1.97-1.59zm-.58-4.15l-1.56 1.56l-1.48 1.48l-.29.29c-.85.85-2.06 1.14-3.15.87c-.2.89-1 1.55-1.95 1.55c-1.11 0-2-.9-2-2c0-.95.66-1.74 1.54-1.95c-.28-1.1.01-2.31.87-3.17l.11-.11l1.48 1.48l-.11.11c-.48.48-.48 1.26 0 1.74c.48.48 1.26.48 1.74 0l.29-.29l1.48-1.48l1.56-1.56l1.47 1.48z"/>
</svg>
