<?xml version="1.0" encoding="utf-8"?>
<!DOCTYPE svg PUBLIC "-//W3C//DTD SVG 1.1//EN" "http://www.w3.org/Graphics/SVG/1.1/DTD/svg11.dtd">
<svg version="1.1" id="Layer_1" xmlns="http://www.w3.org/2000/svg" xmlns:xlink="http://www.w3.org/1999/xlink" x="0px" y="0px"
	 width="512px" height="512px" viewBox="0 0 512 512" enable-background="new 0 0 512 512" xml:space="preserve">
<g>
	<g>
		<path fill="#020202" d="M403.191,172.262c0.547-0.492,1.089-0.994,1.616-1.521l21.969-21.967c12.998-13,14.935-32.139,4.323-42.75
			l-33.302-33.301c-10.61-10.611-29.749-8.676-42.748,4.322l-21.968,21.969c-0.528,0.527-1.031,1.068-1.522,1.617L403.191,172.262z"
			/>
		<polygon fill="#020202" points="99.842,403.98 135.257,439.396 88.128,451.109 41,462.822 52.712,415.691 64.425,368.563 		"/>
		<polygon fill="#020202" points="340.238,132.844 108.008,365.074 97.761,354.828 329.99,122.598 319.744,112.352 74.961,357.133
			146.689,428.859 391.471,184.079 		"/>
	</g>
	<path d="M461.837,458.938c-38.894-0.305-43.742-9.674-56.415-48.719c-23.379-61.619-128.685,16.125-63.427,43.123
		C407.248,480.34,500.73,459.242,461.837,458.938z"/>
	<g>
		<path d="M332.399,353.033l-36.44-51.771l-35.998,36l39.147,42.596c19.701,24.449,15.155,23.359,34.024,8.15
			C352.002,372.805,352.099,377.477,332.399,353.033z"/>
		<path d="M218.79,191.631L132.846,69.536c-19.701-24.449-50.968-31.941-69.838-16.734c-18.87,15.207-18.194,47.352,1.505,71.797
			L170.5,239.922L218.79,191.631z M114.312,86.739c0,0-3.401-14.576-30.612-30.611c0,0,28.667-4.373,43.245,19.436
			C117.226,83.336,114.312,86.739,114.312,86.739z"/>
	</g>
</g>
</svg>
